<?xml version="1.0" encoding="UTF-8" standalone="no"?>
<!-- Created with Inkscape (http://www.inkscape.org/) -->
<svg
   xmlns:dc="http://purl.org/dc/elements/1.1/"
   xmlns:cc="http://web.resource.org/cc/"
   xmlns:rdf="http://www.w3.org/1999/02/22-rdf-syntax-ns#"
   xmlns:svg="http://www.w3.org/2000/svg"
   xmlns="http://www.w3.org/2000/svg"
   xmlns:sodipodi="http://sodipodi.sourceforge.net/DTD/sodipodi-0.dtd"
   xmlns:inkscape="http://www.inkscape.org/namespaces/inkscape"
   width="1024"
   height="1024"
   id="svg2"
   sodipodi:version="0.32"
   inkscape:version="0.44"
   version="1.0"
   sodipodi:docbase="/Users/esposito/Pictures/svg/YClock"
   sodipodi:docname="douze.svg">
  <defs
     id="defs4" />
  <sodipodi:namedview
     id="base"
     pagecolor="#ffffff"
     bordercolor="#666666"
     borderopacity="1.0"
     gridtolerance="10000"
     guidetolerance="10000"
     objecttolerance="50"
     inkscape:pageopacity="0.0"
     inkscape:pageshadow="2"
     inkscape:zoom="0.3077861"
     inkscape:cx="354.40176"
     inkscape:cy="559.99514"
     inkscape:document-units="px"
     inkscape:current-layer="layer1"
     width="1024px"
     height="1024px"
     borderlayer="false"
     inkscape:showpageshadow="true"
     showgrid="true"
     gridspacingx="32px"
     gridspacingy="32px"
     gridempspacing="4"
     inkscape:object-bbox="false"
     inkscape:object-points="false"
     inkscape:object-paths="true"
     inkscape:object-nodes="false"
     inkscape:grid-points="true"
     inkscape:window-width="823"
     inkscape:window-height="577"
     inkscape:window-x="0"
     inkscape:window-y="22"
     inkscape:grid-bbox="true" />
  <metadata
     id="metadata7">
    <rdf:RDF>
      <cc:Work
         rdf:about="">
        <dc:format>image/svg+xml</dc:format>
        <dc:type
           rdf:resource="http://purl.org/dc/dcmitype/StillImage" />
      </cc:Work>
    </rdf:RDF>
  </metadata>
  <g
     inkscape:label="Layer 1"
     inkscape:groupmode="layer"
     id="layer1">
    <path
       style="fill:black;fill-opacity:0.43315507;fill-rule:nonzero;stroke:none;stroke-width:1;stroke-linecap:round;stroke-linejoin:round;stroke-miterlimit:4;stroke-dasharray:none;stroke-dashoffset:0;stroke-opacity:1"
       d="M 294.84375 212.53125 C 274.24601 212.32878 253.58238 219.86111 237.625 235.15625 C 264.2326 209.86497 306.36162 210.26787 332.46875 236.375 C 345.56042 249.46665 352.17681 266.57971 352.34375 283.75 C 334.72991 283.57874 317.08611 290.22639 303.65625 303.65625 C 290.2264 317.08609 283.57874 334.72991 283.75 352.34375 C 266.57972 352.17681 249.46667 345.56041 236.375 332.46875 C 210.35182 306.44556 209.86098 264.49616 234.90625 237.875 C 204.55672 269.80414 205.04645 320.35895 236.375 351.6875 C 246.87629 362.18878 259.54251 369.21 272.9375 372.78125 C 272.88442 372.83421 272.8342 372.91565 272.78125 372.96875 C 263.04735 382.73369 255.63485 395.07855 251.8125 409.34375 C 240.46628 451.68841 264.68698 495.21941 306.125 508.21875 C 271.93403 497.1721 252.03333 461.0969 261.4375 426 C 266.22742 408.12375 277.7225 393.82445 292.5 385.09375 C 295.46224 390.34046 299.18931 395.28307 303.65625 399.75 C 326.04014 422.13388 360.19265 425.6184 386.25 410.21875 C 394.68079 425.16761 397.47699 443.2816 392.6875 461.15625 C 383.43028 495.70475 349.11358 516.90306 314.53125 510.375 C 320.12848 511.504 325.7279 512.04304 331.25 512 C 367.00356 511.72131 399.64362 487.7638 409.34375 451.5625 C 413.18596 437.22315 412.94436 422.72573 409.34375 409.34375 C 422.72574 412.94437 437.22316 413.18596 451.5625 409.34375 C 487.7638 399.64364 511.7213 367.00357 512 331.25 C 512.04305 325.7279 511.50399 320.12849 510.375 314.53125 C 516.90305 349.1136 495.70476 383.43026 461.15625 392.6875 C 443.2816 397.477 425.16762 394.68078 410.21875 386.25 C 425.6184 360.19265 422.1339 326.04013 399.75 303.65625 C 395.28307 299.18931 390.34046 295.46224 385.09375 292.5 C 393.82445 277.72251 408.12377 266.22742 426 261.4375 C 461.09689 252.03333 497.17212 271.93404 508.21875 306.125 C 495.21941 264.68701 451.6884 240.46628 409.34375 251.8125 C 395.07856 255.63486 382.7337 263.04734 372.96875 272.78125 C 372.91565 272.8342 372.8342 272.88443 372.78125 272.9375 C 369.21001 259.54253 362.18878 246.87628 351.6875 236.375 C 335.98232 220.66982 315.44149 212.73372 294.84375 212.53125 z M 510.375 314.53125 C 510.15032 313.41736 509.92935 312.30089 509.65625 311.1875 C 509.92497 312.30277 510.16442 313.41569 510.375 314.53125 z M 512 331.25 C 512.27869 367.00356 536.2362 399.64362 572.4375 409.34375 C 586.77682 413.18596 601.27427 412.94436 614.65625 409.34375 C 611.05566 422.72574 610.81404 437.22316 614.65625 451.5625 C 624.35636 487.7638 656.99643 511.7213 692.75 512 C 698.2721 512.04305 703.87151 511.50399 709.46875 510.375 C 674.8864 516.90305 640.56974 495.70476 631.3125 461.15625 C 626.523 443.2816 629.31922 425.16762 637.75 410.21875 C 663.80732 425.6184 697.95987 422.1339 720.34375 399.75 C 724.81069 395.28307 728.53776 390.34046 731.5 385.09375 C 746.27749 393.82445 757.77258 408.12377 762.5625 426 C 771.9667 461.09689 752.06596 497.17212 717.875 508.21875 C 759.31299 495.21941 783.53372 451.6884 772.1875 409.34375 C 768.36517 395.07856 760.95266 382.7337 751.21875 372.96875 C 751.1658 372.91565 751.11557 372.8342 751.0625 372.78125 C 764.4575 369.21001 777.12372 362.18878 787.625 351.6875 C 819.0354 320.27714 819.43404 269.53976 788.84375 237.625 C 814.13502 264.2326 813.73213 306.36162 787.625 332.46875 C 774.53338 345.56042 757.42029 352.17681 740.25 352.34375 C 740.42126 334.72991 733.77361 317.08611 720.34375 303.65625 C 706.91391 290.2264 689.27009 283.57874 671.65625 283.75 C 671.82316 266.57972 678.43959 249.46667 691.53125 236.375 C 717.55447 210.35182 759.50384 209.86098 786.125 234.90625 C 754.19586 204.55672 703.64105 205.04645 672.3125 236.375 C 661.81119 246.87629 654.79 259.54251 651.21875 272.9375 C 651.16582 272.88442 651.08435 272.8342 651.03125 272.78125 C 641.26628 263.04735 628.92145 255.63485 614.65625 251.8125 C 572.31159 240.46628 528.78059 264.68698 515.78125 306.125 C 526.82787 271.93403 562.9031 252.03333 598 261.4375 C 615.87625 266.22742 630.17555 277.7225 638.90625 292.5 C 633.65951 295.46224 628.71693 299.18931 624.25 303.65625 C 601.86612 326.04014 598.3816 360.19265 613.78125 386.25 C 598.83239 394.68079 580.7184 397.47699 562.84375 392.6875 C 528.29522 383.43028 507.09693 349.11358 513.625 314.53125 C 512.496 320.12848 511.95696 325.7279 512 331.25 z M 513.625 314.53125 C 513.83558 313.41569 514.07503 312.30277 514.34375 311.1875 C 514.07065 312.30089 513.84968 313.41736 513.625 314.53125 z M 709.46875 510.375 C 710.58264 510.15032 711.69911 509.92935 712.8125 509.65625 C 711.69723 509.92497 710.58431 510.16442 709.46875 510.375 z M 692.75 512 C 656.99643 512.27869 624.35638 536.2362 614.65625 572.4375 C 610.81404 586.77682 611.05564 601.27427 614.65625 614.65625 C 601.27429 611.05566 586.77684 610.81404 572.4375 614.65625 C 536.23617 624.35636 512.2787 656.99643 512 692.75 C 511.95696 698.2721 512.49601 703.87151 513.625 709.46875 C 507.09693 674.8864 528.29524 640.56974 562.84375 631.3125 C 580.71837 626.523 598.83238 629.31922 613.78125 637.75 C 598.3816 663.80732 601.8661 697.95987 624.25 720.34375 C 628.71693 724.81069 633.65954 728.53776 638.90625 731.5 C 630.17558 746.27749 615.87623 757.77258 598 762.5625 C 562.90311 771.9667 526.82788 752.06596 515.78125 717.875 C 528.78056 759.31299 572.3116 783.53372 614.65625 772.1875 C 628.92144 768.36517 641.2663 760.95266 651.03125 751.21875 C 651.08432 751.1658 651.1658 751.11557 651.21875 751.0625 C 654.79002 764.4575 661.81122 777.12372 672.3125 787.625 C 703.72289 819.0354 754.46024 819.43404 786.375 788.84375 C 759.76742 814.13502 717.63838 813.73213 691.53125 787.625 C 678.43961 774.53338 671.82319 757.42029 671.65625 740.25 C 689.27012 740.42126 706.91389 733.77361 720.34375 720.34375 C 733.7736 706.91391 740.42126 689.27009 740.25 671.65625 C 757.42028 671.82316 774.53333 678.43959 787.625 691.53125 C 813.64822 717.55447 814.13902 759.50384 789.09375 786.125 C 819.44329 754.19586 818.95355 703.64105 787.625 672.3125 C 777.12374 661.81119 764.45749 654.79 751.0625 651.21875 C 751.11558 651.16582 751.1658 651.08435 751.21875 651.03125 C 760.95265 641.26628 768.36515 628.92145 772.1875 614.65625 C 783.53373 572.31159 759.31302 528.78059 717.875 515.78125 C 752.06594 526.82787 771.96667 562.9031 762.5625 598 C 757.77261 615.87625 746.2775 630.17555 731.5 638.90625 C 728.53776 633.65951 724.81069 628.71693 720.34375 624.25 C 697.95986 601.86612 663.80735 598.3816 637.75 613.78125 C 629.31925 598.83239 626.52301 580.7184 631.3125 562.84375 C 640.56972 528.29522 674.88642 507.09693 709.46875 513.625 C 703.87151 512.496 698.2721 511.95696 692.75 512 z M 709.46875 513.625 C 710.58431 513.83558 711.69723 514.07503 712.8125 514.34375 C 711.69911 514.07065 710.58264 513.84968 709.46875 513.625 z M 513.625 709.46875 C 513.84968 710.58264 514.07065 711.69911 514.34375 712.8125 C 514.07503 711.69723 513.83558 710.58431 513.625 709.46875 z M 512 692.75 C 511.72131 656.99643 487.7638 624.35638 451.5625 614.65625 C 437.22315 610.81404 422.72573 611.05564 409.34375 614.65625 C 412.94437 601.27429 413.18596 586.77684 409.34375 572.4375 C 399.64364 536.23617 367.00357 512.2787 331.25 512 C 325.7279 511.95696 320.12849 512.49601 314.53125 513.625 C 349.1136 507.09693 383.43026 528.29524 392.6875 562.84375 C 397.477 580.71837 394.68078 598.83238 386.25 613.78125 C 360.19265 598.3816 326.04013 601.8661 303.65625 624.25 C 299.18931 628.71693 295.46224 633.65954 292.5 638.90625 C 277.72251 630.17558 266.22742 615.87623 261.4375 598 C 252.03333 562.90311 271.93404 526.82788 306.125 515.78125 C 264.68701 528.78056 240.46628 572.3116 251.8125 614.65625 C 255.63486 628.92144 263.04734 641.2663 272.78125 651.03125 C 272.8342 651.08432 272.88443 651.1658 272.9375 651.21875 C 259.54253 654.79002 246.87628 661.81122 236.375 672.3125 C 204.96463 703.72289 204.56596 754.46024 235.15625 786.375 C 209.86497 759.76742 210.26787 717.63838 236.375 691.53125 C 249.46665 678.43961 266.57971 671.82319 283.75 671.65625 C 283.57874 689.27012 290.22639 706.91389 303.65625 720.34375 C 317.08609 733.7736 334.72991 740.42126 352.34375 740.25 C 352.17681 757.42028 345.56041 774.53333 332.46875 787.625 C 306.44556 813.64822 264.49616 814.13902 237.875 789.09375 C 269.80414 819.44329 320.35895 818.95355 351.6875 787.625 C 362.18878 777.12374 369.21 764.45749 372.78125 751.0625 C 372.83421 751.11558 372.91565 751.1658 372.96875 751.21875 C 382.73369 760.95265 395.07855 768.36515 409.34375 772.1875 C 451.68841 783.53373 495.21941 759.31302 508.21875 717.875 C 497.1721 752.06594 461.0969 771.96667 426 762.5625 C 408.12375 757.77261 393.82445 746.2775 385.09375 731.5 C 390.34046 728.53776 395.28307 724.81069 399.75 720.34375 C 422.13388 697.95986 425.6184 663.80735 410.21875 637.75 C 425.16761 629.31925 443.2816 626.52301 461.15625 631.3125 C 495.70475 640.56972 516.90306 674.88642 510.375 709.46875 C 511.504 703.87151 512.04304 698.2721 512 692.75 z M 510.375 709.46875 C 510.16442 710.58431 509.92497 711.69723 509.65625 712.8125 C 509.92935 711.69911 510.15032 710.58264 510.375 709.46875 z M 314.53125 513.625 C 313.41736 513.84968 312.30089 514.07065 311.1875 514.34375 C 312.30277 514.07503 313.41569 513.83558 314.53125 513.625 z M 314.53125 510.375 C 313.41569 510.16442 312.30277 509.92497 311.1875 509.65625 C 312.30089 509.92935 313.41736 510.15032 314.53125 510.375 z M 351.125 297.34375 C 348.64707 310.21836 342.43117 322.50633 332.46875 332.46875 C 343.07737 321.86014 360.29764 321.86014 370.90625 332.46875 C 374.22144 335.78394 376.5068 339.73458 377.75 343.9375 C 374.31972 330.5617 375.15779 317.07796 379.375 304.90625 C 383.21736 307.18034 386.82336 309.94835 390.125 313.25 C 407.75976 330.88474 410.74209 357.65569 399.0625 378.375 C 389.28379 369.90942 381.79721 358.58732 378.09375 345.21875 C 380.26934 354.13809 377.86815 363.94435 370.90625 370.90625 C 363.94434 377.86816 354.13809 380.26935 345.21875 378.09375 C 358.58733 381.79719 369.90941 389.28376 378.375 399.0625 C 357.65568 410.74209 330.88475 407.75975 313.25 390.125 C 309.94835 386.82337 307.18035 383.21735 304.90625 379.375 C 317.07797 375.15779 330.56172 374.31973 343.9375 377.75 C 339.73458 376.5068 335.78394 374.22144 332.46875 370.90625 C 321.86015 360.29765 321.86014 343.07736 332.46875 332.46875 C 322.50633 342.43118 310.21836 348.64705 297.34375 351.125 C 297.48494 337.39909 302.78448 323.71552 313.25 313.25 C 323.71551 302.78448 337.39909 297.48492 351.125 297.34375 z M 672.875 297.34375 C 686.60094 297.48494 700.28448 302.78448 710.75 313.25 C 721.21552 323.71551 726.51508 337.39909 726.65625 351.125 C 713.78164 348.64707 701.49367 342.43117 691.53125 332.46875 C 702.13989 343.07737 702.13986 360.29764 691.53125 370.90625 C 688.21607 374.22144 684.26542 376.5068 680.0625 377.75 C 693.43833 374.31972 706.92204 375.15779 719.09375 379.375 C 716.81963 383.21736 714.05165 386.82336 710.75 390.125 C 693.11526 407.75976 666.34431 410.74209 645.625 399.0625 C 654.09061 389.28379 665.41268 381.79721 678.78125 378.09375 C 669.86191 380.26934 660.05565 377.86815 653.09375 370.90625 C 646.13184 363.94434 643.73065 354.13809 645.90625 345.21875 C 642.20278 358.58733 634.71624 369.90941 624.9375 378.375 C 613.25791 357.65568 616.24025 330.88475 633.875 313.25 C 637.17663 309.94835 640.78265 307.18035 644.625 304.90625 C 648.84221 317.07797 649.68027 330.56172 646.25 343.9375 C 647.4932 339.73458 649.77856 335.78394 653.09375 332.46875 C 663.70235 321.86015 680.92264 321.86014 691.53125 332.46875 C 681.56885 322.50633 675.35295 310.21836 672.875 297.34375 z M 512 480 C 494.336 480 480 494.336 480 512 C 480 529.664 494.336 544 512 544 C 529.664 544 544 529.664 544 512 C 544 494.336 529.664 480 512 480 z M 351.15625 617.96875 C 360.55272 617.8754 369.95778 620.19267 378.375 624.9375 C 369.90942 634.71621 358.58732 642.20279 345.21875 645.90625 C 354.13809 643.73066 363.94435 646.13185 370.90625 653.09375 C 377.86816 660.05564 380.26935 669.8619 378.09375 678.78125 C 381.79719 665.4127 389.28376 654.09059 399.0625 645.625 C 410.74209 666.34432 407.75975 693.11525 390.125 710.75 C 386.82337 714.05165 383.21735 716.81965 379.375 719.09375 C 375.15779 706.922 374.31973 693.43828 377.75 680.0625 C 376.5068 684.26542 374.22144 688.21606 370.90625 691.53125 C 360.29765 702.13988 343.07736 702.13986 332.46875 691.53125 C 342.43118 701.4937 348.64705 713.78164 351.125 726.65625 C 337.39909 726.51506 323.71552 721.21552 313.25 710.75 C 302.78448 700.28449 297.48492 686.60091 297.34375 672.875 C 310.21836 675.35296 322.50633 681.56883 332.46875 691.53125 C 321.86014 680.92266 321.86014 663.70236 332.46875 653.09375 C 335.78394 649.77855 339.73458 647.4932 343.9375 646.25 C 330.5617 649.68025 317.07796 648.84221 304.90625 644.625 C 307.18034 640.78264 309.94835 637.17664 313.25 633.875 C 323.72063 623.40436 337.42295 618.10518 351.15625 617.96875 z M 670.6875 617.96875 C 685.13896 617.53981 699.72828 622.85328 710.75 633.875 C 714.05165 637.17663 716.81965 640.78265 719.09375 644.625 C 706.922 648.84221 693.43828 649.68027 680.0625 646.25 C 684.26542 647.4932 688.21606 649.77856 691.53125 653.09375 C 702.13988 663.70235 702.13986 680.92264 691.53125 691.53125 C 701.4937 681.56885 713.78164 675.35295 726.65625 672.875 C 726.51506 686.60094 721.21552 700.28448 710.75 710.75 C 700.28449 721.21552 686.60091 726.51508 672.875 726.65625 C 675.35296 713.78164 681.56883 701.49367 691.53125 691.53125 C 680.92266 702.13989 663.70236 702.13986 653.09375 691.53125 C 649.77855 688.21607 647.4932 684.26542 646.25 680.0625 C 649.68025 693.43833 648.84221 706.92204 644.625 719.09375 C 640.78264 716.81963 637.17664 714.05165 633.875 710.75 C 616.24024 693.11526 613.25791 666.34431 624.9375 645.625 C 634.71621 654.09061 642.20279 665.41268 645.90625 678.78125 C 643.73066 669.86191 646.13185 660.05565 653.09375 653.09375 C 660.05564 646.13184 669.8619 643.73065 678.78125 645.90625 C 665.4127 642.20278 654.09059 634.71624 645.625 624.9375 C 653.39475 620.55765 662.01663 618.22612 670.6875 617.96875 z "
       id="path1909" />
  </g>
</svg>
