<?xml version="1.0" encoding="UTF-8" standalone="no"?>
<!-- Created with Inkscape (http://www.inkscape.org/) -->
<svg
   xmlns:dc="http://purl.org/dc/elements/1.1/"
   xmlns:cc="http://web.resource.org/cc/"
   xmlns:rdf="http://www.w3.org/1999/02/22-rdf-syntax-ns#"
   xmlns:svg="http://www.w3.org/2000/svg"
   xmlns="http://www.w3.org/2000/svg"
   xmlns:xlink="http://www.w3.org/1999/xlink"
   xmlns:sodipodi="http://sodipodi.sourceforge.net/DTD/sodipodi-0.dtd"
   xmlns:inkscape="http://www.inkscape.org/namespaces/inkscape"
   width="1024"
   height="1024"
   id="svg2"
   sodipodi:version="0.32"
   inkscape:version="0.44"
   version="1.0"
   sodipodi:docbase="/Users/esposito/Pictures/svg/YClock"
   sodipodi:docname="huit.svg">
  <defs
     id="defs4">
    <linearGradient
       id="linearGradient2872">
      <stop
         style="stop-color:black;stop-opacity:1;"
         offset="0"
         id="stop2874" />
      <stop
         style="stop-color:#6600e2;stop-opacity:1;"
         offset="1"
         id="stop2876" />
    </linearGradient>
    <radialGradient
       inkscape:collect="always"
       xlink:href="#linearGradient2872"
       id="radialGradient2977"
       gradientUnits="userSpaceOnUse"
       cx="512"
       cy="512"
       fx="512"
       fy="512"
       r="335" />
    <radialGradient
       inkscape:collect="always"
       xlink:href="#linearGradient2872"
       id="radialGradient2979"
       gradientUnits="userSpaceOnUse"
       cx="512"
       cy="512"
       fx="512"
       fy="512"
       r="335" />
    <radialGradient
       inkscape:collect="always"
       xlink:href="#linearGradient2872"
       id="radialGradient2981"
       gradientUnits="userSpaceOnUse"
       cx="512"
       cy="512"
       fx="512"
       fy="512"
       r="335" />
  </defs>
  <sodipodi:namedview
     id="base"
     pagecolor="#ffffff"
     bordercolor="#666666"
     borderopacity="1.0"
     gridtolerance="10000"
     guidetolerance="10"
     objecttolerance="50"
     inkscape:pageopacity="0.0"
     inkscape:pageshadow="2"
     inkscape:zoom="0.35"
     inkscape:cx="361.05"
     inkscape:cy="567.48571"
     inkscape:document-units="px"
     inkscape:current-layer="layer1"
     width="1024px"
     height="1024px"
     showgrid="true"
     gridspacingx="32px"
     gridspacingy="32px"
     gridempspacing="8"
     inkscape:grid-points="true"
     inkscape:grid-bbox="true"
     inkscape:object-points="false"
     inkscape:object-paths="true"
     inkscape:window-width="867"
     inkscape:window-height="649"
     inkscape:window-x="0"
     inkscape:window-y="22" />
  <metadata
     id="metadata7">
    <rdf:RDF>
      <cc:Work
         rdf:about="">
        <dc:format>image/svg+xml</dc:format>
        <dc:type
           rdf:resource="http://purl.org/dc/dcmitype/StillImage" />
      </cc:Work>
    </rdf:RDF>
  </metadata>
  <g
     inkscape:label="Layer 1"
     inkscape:groupmode="layer"
     id="layer1"
     style="display:inline">
    <path
       style="opacity:1;fill:black;fill-opacity:0.50267382;fill-rule:nonzero;stroke:none;stroke-width:10.09861374;stroke-linecap:round;stroke-linejoin:miter;stroke-miterlimit:1;stroke-dasharray:none;stroke-dashoffset:0;stroke-opacity:1"
       d="M 518.125 5.21875 C 571.99844 8.3868792 614.75 53.11711 614.75 107.78125 C 614.75001 134.23268 604.75101 158.37599 588.3125 176.59375 C 598.21001 185.81237 606.41648 196.77895 612.46875 209.03125 C 628.94515 187.64036 638.75 160.84985 638.75 131.78125 C 638.75 63.866153 585.25371 8.4134609 518.125 5.21875 z M 503.96875 5.34375 C 437.74198 9.4927124 385.24999 64.51448 385.25 131.78125 C 385.25 160.84985 395.05485 187.64035 411.53125 209.03125 C 417.58352 196.77895 425.79 185.81236 435.6875 176.59375 C 419.24899 158.37601 409.25 134.23268 409.25 107.78125 C 409.25 53.762465 450.99528 9.4397504 503.96875 5.34375 z M 512 162.53125 C 459.008 162.53125 416 205.53925 416 258.53125 C 416 311.52326 459.008 354.53125 512 354.53125 C 564.992 354.53126 608 311.52325 608 258.53125 C 608 205.53926 564.992 162.53125 512 162.53125 z M 512 178.53125 C 556.16001 178.53125 592 214.37125 592 258.53125 C 592 302.69127 556.16002 338.53126 512 338.53125 C 467.83999 338.53126 431.99999 302.69126 432 258.53125 C 432 214.37125 467.84 178.53125 512 178.53125 z M 512 226.53125 C 494.336 226.53125 480 240.86725 480 258.53125 C 480 276.19526 494.336 290.53125 512 290.53125 C 529.664 290.53126 544 276.19525 544 258.53125 C 544 240.86726 529.664 226.53125 512 226.53125 z M 411.53125 308.03125 C 395.06077 329.41447 385.25704 356.19347 385.25 385.25 C 356.19348 385.25704 329.41446 395.06077 308.03125 411.53125 C 320.28355 417.58352 331.28139 425.79 340.5 435.6875 C 353.68453 423.79066 369.95728 415.27072 387.96875 411.46875 C 399.63171 466.9607 447.61176 509.10228 505.875 511.875 C 452.00156 508.70693 409.25 463.94539 409.25 409.28125 C 409.25 409.27079 409.25 409.26046 409.25 409.25 C 409.26046 409.25 409.27079 409.25 409.28125 409.25 C 463.30005 409.25 507.65308 450.99528 511.75 503.96875 C 508.15828 446.57986 466.33869 399.51454 411.46875 387.96875 C 415.27524 369.95275 423.79066 353.68452 435.6875 340.5 C 425.79 331.2814 417.58352 320.28354 411.53125 308.03125 z M 612.46875 308.03125 C 606.41648 320.28355 598.21 331.28139 588.3125 340.5 C 600.20935 353.68452 608.72476 369.95275 612.53125 387.96875 C 611.6942 388.14468 610.86214 388.30763 610.03125 388.5 C 609.82134 388.54861 609.61576 388.6066 609.40625 388.65625 C 607.94969 389.00139 606.49917 389.38627 605.0625 389.78125 C 604.98022 389.80387 604.89471 389.82097 604.8125 389.84375 C 604.60311 389.90178 604.39646 389.97218 604.1875 390.03125 C 603.29729 390.28295 602.4134 390.54195 601.53125 390.8125 C 600.54408 391.11526 599.57051 391.42393 598.59375 391.75 C 597.74514 392.03329 596.90303 392.32434 596.0625 392.625 C 595.8944 392.68513 595.73027 392.75168 595.5625 392.8125 C 595.08264 392.98644 594.60215 393.1642 594.125 393.34375 C 593.70078 393.50339 593.2658 393.64845 592.84375 393.8125 C 592.69623 393.86984 592.5535 393.94212 592.40625 394 C 591.60849 394.31359 590.82103 394.60828 590.03125 394.9375 C 589.21828 395.27632 588.39806 395.64484 587.59375 396 C 587.10345 396.21655 586.61202 396.43369 586.125 396.65625 C 585.83015 396.79101 585.54364 396.92555 585.25 397.0625 C 584.98808 397.18463 584.72969 397.31364 584.46875 397.4375 C 583.86412 397.72455 583.25557 398.0162 582.65625 398.3125 C 582.12498 398.57518 581.58954 398.82387 581.0625 399.09375 C 580.55637 399.3529 580.06467 399.64052 579.5625 399.90625 C 579.39827 399.99316 579.22631 400.06864 579.0625 400.15625 C 578.81207 400.29018 578.56192 400.42694 578.3125 400.5625 C 577.55747 400.97291 576.80818 401.38729 576.0625 401.8125 C 574.56866 402.66435 573.08008 403.55869 571.625 404.46875 C 571.23894 404.7102 570.85201 404.94203 570.46875 405.1875 C 570.13097 405.40387 569.80433 405.62428 569.46875 405.84375 C 569.21482 406.00982 568.97141 406.17591 568.71875 406.34375 C 568.10298 406.75269 567.48316 407.17439 566.875 407.59375 C 566.65915 407.74264 566.43363 407.88106 566.21875 408.03125 C 565.88074 408.26745 565.55434 408.5106 565.21875 408.75 C 564.55658 409.22246 563.90262 409.70271 563.25 410.1875 C 563.06539 410.32464 562.87133 410.45563 562.6875 410.59375 C 562.24891 410.92327 561.80916 411.2587 561.375 411.59375 C 560.60466 412.18817 559.8499 412.79465 559.09375 413.40625 C 559.07098 413.42467 559.05401 413.45031 559.03125 413.46875 C 558.29872 414.06209 557.56266 414.64079 556.84375 415.25 C 556.54654 415.50186 556.2636 415.77671 555.96875 416.03125 C 555.65879 416.29879 555.33858 416.57327 555.03125 416.84375 C 554.83789 417.01397 554.62981 417.17237 554.4375 417.34375 C 554.03634 417.70115 553.64656 418.0751 553.25 418.4375 C 552.84248 418.80999 552.43387 419.18479 552.03125 419.5625 C 551.48452 420.07543 550.94382 420.60256 550.40625 421.125 C 550.29467 421.23346 550.17368 421.32863 550.0625 421.4375 C 549.88518 421.61108 549.70756 421.79414 549.53125 421.96875 C 548.99861 422.49649 548.46077 423.02545 547.9375 423.5625 C 547.27413 424.24331 546.6168 424.92947 545.96875 425.625 C 545.93848 425.6575 545.90524 425.68622 545.875 425.71875 C 545.32344 426.31195 544.79024 426.92756 544.25 427.53125 C 543.88493 427.93916 543.51609 428.33736 543.15625 428.75 C 542.95594 428.97975 542.76118 429.2063 542.5625 429.4375 C 542.33848 429.69815 542.12818 429.95626 541.90625 430.21875 C 541.53962 430.65233 541.17338 431.09271 540.8125 431.53125 C 540.3055 432.14737 539.80802 432.78048 539.3125 433.40625 C 538.82945 434.01627 538.34699 434.63097 537.875 435.25 C 537.68592 435.49799 537.49979 435.75058 537.3125 436 C 536.98308 436.43869 536.63634 436.86943 536.3125 437.3125 C 535.76327 438.06402 535.25171 438.82982 534.71875 439.59375 C 534.43636 439.99855 534.15277 440.40427 533.875 440.8125 C 533.66957 441.11436 533.45288 441.41503 533.25 441.71875 C 533.13312 441.89377 533.02228 442.07437 532.90625 442.25 C 532.54981 442.78938 532.19212 443.3299 531.84375 443.875 C 531.53131 444.36393 531.21214 444.85029 530.90625 445.34375 C 530.55069 445.91743 530.19036 446.48277 529.84375 447.0625 C 529.74084 447.23461 529.66461 447.42112 529.5625 447.59375 C 529.43158 447.8151 529.28586 448.02779 529.15625 448.25 C 528.82544 448.8171 528.50972 449.3961 528.1875 449.96875 C 527.90246 450.47533 527.622 450.98914 527.34375 451.5 C 527.13937 451.87521 526.91944 452.24751 526.71875 452.625 C 526.69261 452.67418 526.68233 452.73203 526.65625 452.78125 C 526.30864 453.43719 525.96136 454.0873 525.625 454.75 C 525.572 454.85445 525.52147 454.95788 525.46875 455.0625 C 525.42667 455.14598 525.38565 455.22892 525.34375 455.3125 C 524.94325 456.11166 524.54024 456.91007 524.15625 457.71875 C 524.10626 457.82399 524.04971 457.92585 524 458.03125 C 523.73395 458.59554 523.47668 459.18119 523.21875 459.75 C 523.06195 460.09586 522.90377 460.43374 522.75 460.78125 C 522.5529 461.22653 522.3796 461.67705 522.1875 462.125 C 521.88466 462.83125 521.57155 463.53722 521.28125 464.25 C 521.22276 464.39367 521.18297 464.54357 521.125 464.6875 C 520.8225 465.43816 520.50721 466.17982 520.21875 466.9375 C 519.92311 467.71402 519.62447 468.49752 519.34375 469.28125 C 519.03561 470.14138 518.7587 471.00639 518.46875 471.875 C 518.27824 472.44556 518.08883 473.01962 517.90625 473.59375 C 517.82356 473.85382 517.7373 474.11421 517.65625 474.375 C 517.57897 474.62361 517.51329 474.87573 517.4375 475.125 C 517.22152 475.83562 517.01627 476.53416 516.8125 477.25 C 516.60854 477.96615 516.41037 478.685 516.21875 479.40625 C 516.00119 480.22515 515.79523 481.04969 515.59375 481.875 C 515.57345 481.95822 515.55138 482.04172 515.53125 482.125 C 515.3349 482.93656 515.14939 483.74494 514.96875 484.5625 C 514.78161 485.40947 514.57633 486.27178 514.40625 487.125 C 514.40426 487.13501 514.40824 487.14624 514.40625 487.15625 C 514.35036 487.43699 514.30403 487.7186 514.25 488 C 514.13642 488.59221 514.01155 489.18615 513.90625 489.78125 C 513.88227 489.91665 513.8673 490.05196 513.84375 490.1875 C 513.67253 491.17393 513.52325 492.16216 513.375 493.15625 C 513.36867 493.19866 513.35004 493.23883 513.34375 493.28125 C 513.25541 493.87774 513.17374 494.49459 513.09375 495.09375 C 512.85654 496.86943 512.66281 498.63944 512.5 500.4375 C 512.42261 501.29213 512.34157 502.14057 512.28125 503 C 512.21409 503.95652 512.17079 504.91275 512.125 505.875 C 512.16291 505.23037 512.23149 504.57889 512.28125 503.9375 C 512.34763 503.08339 512.41284 502.22314 512.5 501.375 C 512.5796 500.60041 512.65326 499.83191 512.75 499.0625 C 512.76456 498.9467 512.79756 498.83443 512.8125 498.71875 C 512.82728 498.60435 512.82859 498.48928 512.84375 498.375 C 513.0459 496.8508 513.29421 495.34615 513.5625 493.84375 C 513.58461 493.71991 513.60244 493.59243 513.625 493.46875 C 513.72368 492.92768 513.83036 492.38183 513.9375 491.84375 C 513.97671 491.64671 514.02216 491.44664 514.0625 491.25 C 514.21251 490.51917 514.36579 489.7876 514.53125 489.0625 C 514.54538 489.00059 514.54826 488.93686 514.5625 488.875 C 514.58171 488.79152 514.60558 488.7084 514.625 488.625 C 514.98219 487.09119 515.38741 485.56913 515.8125 484.0625 C 515.82698 484.01118 515.82919 483.95754 515.84375 483.90625 C 516.05452 483.1644 516.27307 482.42242 516.5 481.6875 C 516.51255 481.64683 516.51865 481.60314 516.53125 481.5625 C 516.76587 480.80606 517.02971 480.06136 517.28125 479.3125 C 517.54396 478.52959 517.81281 477.74313 518.09375 476.96875 C 518.09707 476.9596 518.09043 476.94665 518.09375 476.9375 C 518.37418 476.16554 518.67045 475.41947 518.96875 474.65625 C 519.25918 473.91237 519.53659 473.17285 519.84375 472.4375 C 519.8528 472.41585 519.86594 472.39664 519.875 472.375 C 519.91478 472.27995 519.95995 472.18865 520 472.09375 C 520.57624 470.72925 521.17971 469.39623 521.8125 468.0625 C 521.83648 468.01197 521.85094 467.95674 521.875 467.90625 C 522.19617 467.23177 522.53965 466.57254 522.875 465.90625 C 522.9062 465.84429 522.93743 465.78063 522.96875 465.71875 C 523.00013 465.65672 523.031 465.59321 523.0625 465.53125 C 523.40044 464.86686 523.74188 464.18723 524.09375 463.53125 C 524.43211 462.90024 524.77393 462.27929 525.125 461.65625 C 525.17349 461.57021 525.23252 461.49214 525.28125 461.40625 C 525.62291 460.80397 525.95911 460.18838 526.3125 459.59375 C 526.35096 459.52908 526.3989 459.47083 526.4375 459.40625 C 526.62492 459.09244 526.80934 458.78038 527 458.46875 C 527.25652 458.04978 527.51892 457.63374 527.78125 457.21875 C 528.2147 456.53264 528.64463 455.86252 529.09375 455.1875 C 529.4524 454.64845 529.819 454.09434 530.1875 453.5625 C 530.23042 453.50059 530.26945 453.43682 530.3125 453.375 C 530.72321 452.78498 531.13983 452.20592 531.5625 451.625 C 531.66769 451.48049 531.76907 451.33144 531.875 451.1875 C 532.24001 450.6913 532.62634 450.2081 533 449.71875 C 533.1175 449.56493 533.22541 449.40314 533.34375 449.25 C 533.71093 448.77469 534.09348 448.3124 534.46875 447.84375 C 534.85358 447.36331 535.23178 446.87959 535.625 446.40625 C 535.88025 446.09899 536.1475 445.80422 536.40625 445.5 C 536.92986 444.88426 537.46226 444.25937 538 443.65625 C 538.36521 443.24664 538.72212 442.84119 539.09375 442.4375 C 539.26419 442.25245 539.45322 442.09004 539.625 441.90625 C 539.6403 441.88987 539.64094 441.86012 539.65625 441.84375 C 540.19916 441.26362 540.75643 440.69242 541.3125 440.125 C 541.67733 439.75251 542.03583 439.36693 542.40625 439 C 542.59038 438.81765 542.78325 438.64972 542.96875 438.46875 C 543.35045 438.09624 543.73756 437.74159 544.125 437.375 C 544.34554 437.1664 544.55887 436.95666 544.78125 436.75 C 544.87795 436.66011 544.96546 436.55827 545.0625 436.46875 C 545.39473 436.16238 545.72624 435.86452 546.0625 435.5625 C 546.51337 435.15728 546.97948 434.77231 547.4375 434.375 C 547.61537 434.22081 547.78982 434.05923 547.96875 433.90625 C 548.46153 433.48469 548.96797 433.06858 549.46875 432.65625 C 549.74285 432.43065 550.00478 432.19156 550.28125 431.96875 C 550.61057 431.70321 550.94861 431.44904 551.28125 431.1875 C 551.3861 431.10511 551.48858 431.01949 551.59375 430.9375 C 551.81086 430.76815 552.0315 430.60514 552.25 430.4375 C 552.8736 429.95906 553.49024 429.4956 554.125 429.03125 C 554.46002 428.78617 554.78692 428.52235 555.125 428.28125 C 555.25905 428.18565 555.39672 428.09497 555.53125 428 C 556.04456 427.63761 556.57357 427.29066 557.09375 426.9375 C 557.43825 426.70364 557.77753 426.47977 558.125 426.25 C 558.43787 426.04304 558.74725 425.82862 559.0625 425.625 C 559.11321 425.59227 559.16798 425.56389 559.21875 425.53125 C 559.80585 425.15373 560.40481 424.77207 561 424.40625 C 561.18663 424.29154 561.37508 424.17605 561.5625 424.0625 C 561.9467 423.82967 562.33128 423.60292 562.71875 423.375 C 563.06133 423.17351 563.4049 422.97886 563.75 422.78125 C 564.00206 422.63691 564.2466 422.48601 564.5 422.34375 C 565.01642 422.05384 565.54063 421.7812 566.0625 421.5 C 566.48938 421.2699 566.91327 421.03671 567.34375 420.8125 C 567.78332 420.5836 568.21299 420.3477 568.65625 420.125 C 568.76813 420.06878 568.88789 420.02457 569 419.96875 C 569.61902 419.6606 570.24898 419.35845 570.875 419.0625 C 571.13665 418.93878 571.39339 418.80907 571.65625 418.6875 C 571.83485 418.6049 572.00835 418.5191 572.1875 418.4375 C 572.73658 418.18738 573.28956 417.95943 573.84375 417.71875 C 574.58074 417.39875 575.31668 417.08436 576.0625 416.78125 C 576.58884 416.56734 577.12562 416.36165 577.65625 416.15625 C 578.36162 415.88308 579.06846 415.60169 579.78125 415.34375 C 580.0524 415.24563 580.32154 415.1584 580.59375 415.0625 C 581.35649 414.7939 582.13541 414.53223 582.90625 414.28125 C 583.49134 414.09075 584.06661 413.89898 584.65625 413.71875 C 584.84327 413.66159 585.03128 413.61862 585.21875 413.5625 C 585.8209 413.38223 586.42453 413.20071 587.03125 413.03125 C 587.20672 412.98227 587.38666 412.92307 587.5625 412.875 C 588.19348 412.70245 588.833 412.53575 589.46875 412.375 C 589.62492 412.3355 589.78104 412.28878 589.9375 412.25 C 590.29785 412.1607 590.66942 412.08548 591.03125 412 C 591.42747 411.90638 591.82077 411.80776 592.21875 411.71875 C 592.92517 411.56071 593.63194 411.42465 594.34375 411.28125 C 594.48011 411.25381 594.61344 411.2144 594.75 411.1875 C 595.27784 411.08341 595.81305 411.00221 596.34375 410.90625 C 596.5937 410.86113 596.84318 410.82456 597.09375 410.78125 C 597.83506 410.65288 598.56586 410.51862 599.3125 410.40625 C 600.13854 410.28211 600.98016 410.16683 601.8125 410.0625 C 601.90645 410.05072 601.99972 410.04277 602.09375 410.03125 C 602.104 410.02999 602.11474 410.0325 602.125 410.03125 C 603.7175 409.83654 605.32346 409.65216 606.9375 409.53125 C 609.5018 409.3393 612.1056 409.25 614.71875 409.25 C 614.72921 409.25 614.73954 409.25 614.75 409.25 C 614.75 409.26046 614.75 409.27079 614.75 409.28125 C 614.75 463.30005 573.00472 507.65308 520.03125 511.75 C 577.42946 508.16167 624.48982 466.34991 636.03125 411.46875 C 637.15697 411.70637 638.2632 411.97585 639.375 412.25 C 640.4868 412.52415 641.59027 412.81497 642.6875 413.125 C 643.64254 413.39522 644.61895 413.6718 645.5625 413.96875 C 645.69715 414.0111 645.83433 414.05086 645.96875 414.09375 C 646.1081 414.13825 646.23591 414.20492 646.375 414.25 C 647.31683 414.55497 648.25778 414.85627 649.1875 415.1875 C 649.45679 415.28355 649.73175 415.37052 650 415.46875 C 650.54354 415.66757 651.08579 415.88605 651.625 416.09375 C 651.81241 416.16602 652.00062 416.23916 652.1875 416.3125 C 652.2485 416.33641 652.31405 416.35097 652.375 416.375 C 653.03881 416.637 653.68677 416.91215 654.34375 417.1875 C 655.06157 417.48835 655.79055 417.80843 656.5 418.125 C 657.19015 418.43274 657.88048 418.74008 658.5625 419.0625 C 659.28459 419.40403 659.97475 419.736 660.6875 420.09375 C 660.76288 420.13156 660.83097 420.18076 660.90625 420.21875 C 661.5228 420.5301 662.14064 420.86416 662.75 421.1875 C 663.34039 421.50065 663.94776 421.80073 664.53125 422.125 C 665.29934 422.55195 666.05664 422.99159 666.8125 423.4375 C 667.02097 423.56044 667.22998 423.68814 667.4375 423.8125 C 667.88914 424.0833 668.33414 424.34749 668.78125 424.625 C 669.28311 424.9363 669.78519 425.24283 670.28125 425.5625 C 671.0847 426.08034 671.86836 426.61684 672.65625 427.15625 C 673.2788 427.58247 673.88739 427.99805 674.5 428.4375 C 674.51187 428.44602 674.51938 428.46023 674.53125 428.46875 C 674.94685 428.76697 675.3703 429.07076 675.78125 429.375 C 675.98865 429.52863 676.20005 429.68861 676.40625 429.84375 C 676.58624 429.97915 676.75842 430.11344 676.9375 430.25 C 677.3701 430.57992 677.79157 430.91342 678.21875 431.25 C 678.27821 431.29686 678.34689 431.32801 678.40625 431.375 C 678.94971 431.80511 679.49676 432.24672 680.03125 432.6875 C 680.35424 432.95393 680.68032 433.22971 681 433.5 C 681.26448 433.7236 681.51906 433.96129 681.78125 434.1875 C 682.35841 434.68557 682.93412 435.17688 683.5 435.6875 C 684.07103 435.07442 684.66545 434.47499 685.25 433.875 C 685.25517 433.86969 685.24483 433.84906 685.25 433.84375 C 687.0198 432.02794 688.86086 430.28557 690.75 428.59375 C 692.63804 426.90083 694.56238 425.28192 696.5625 423.71875 C 697.89591 422.67664 699.27544 421.66953 700.65625 420.6875 C 701.34023 420.20187 702.02353 419.68932 702.71875 419.21875 C 706.93013 416.36496 711.37414 413.80085 715.96875 411.53125 C 715.30028 411.01636 714.61642 410.50176 713.9375 410 C 713.25204 409.4934 712.57092 409.02428 711.875 408.53125 C 711.18582 408.04281 710.51175 407.53744 709.8125 407.0625 C 709.10172 406.57971 708.40849 406.12488 707.6875 405.65625 C 706.98578 405.19983 706.27371 404.75532 705.5625 404.3125 C 705.5549 404.30777 705.53885 404.31723 705.53125 404.3125 C 704.82004 403.86989 704.12676 403.42883 703.40625 403 C 703.39856 402.99543 703.38269 403.00457 703.375 403 C 702.64669 402.56674 701.92512 402.13774 701.1875 401.71875 C 700.44216 401.29532 699.69215 400.8774 698.9375 400.46875 C 698.19887 400.06862 697.46611 399.66704 696.71875 399.28125 C 696.71052 399.277 696.69573 399.2855 696.6875 399.28125 C 695.94007 398.89563 695.19348 398.4961 694.4375 398.125 C 694.42906 398.12086 694.41469 398.12914 694.40625 398.125 C 693.65029 397.75412 692.88932 397.38742 692.125 397.03125 C 692.11638 397.02723 692.10237 397.03526 692.09375 397.03125 C 691.32943 396.67528 690.58499 396.30983 689.8125 395.96875 C 689.80377 395.9649 689.78998 395.9726 689.78125 395.96875 C 689.00868 395.62785 688.21805 395.29457 687.4375 394.96875 C 687.4286 394.96504 687.41515 394.97246 687.40625 394.96875 C 686.62569 394.64313 685.85086 394.31036 685.0625 394 C 685.05343 393.99643 685.04032 394.00357 685.03125 394 C 684.24288 393.68985 683.45223 393.38846 682.65625 393.09375 C 682.64702 393.09033 682.63423 393.09716 682.625 393.09375 C 681.82901 392.79925 681.05341 392.49762 680.25 392.21875 C 680.24072 392.21553 680.22803 392.22197 680.21875 392.21875 C 679.95088 392.12584 679.67493 392.02866 679.40625 391.9375 C 678.87012 391.75568 678.32057 391.58105 677.78125 391.40625 C 677.20937 391.22077 676.63791 391.05253 676.0625 390.875 C 675.80976 390.79702 675.56591 390.70144 675.3125 390.625 C 675.30295 390.62212 675.2908 390.62788 675.28125 390.625 C 674.46337 390.37852 673.63724 390.13654 672.8125 389.90625 C 672.80281 389.90354 672.79094 389.90895 672.78125 389.90625 C 671.95649 389.67616 671.14393 389.43246 670.3125 389.21875 C 670.30271 389.21624 670.29104 389.22126 670.28125 389.21875 C 669.44976 389.00523 668.61923 388.79071 667.78125 388.59375 C 667.77139 388.59143 667.75986 388.59606 667.75 388.59375 C 666.91194 388.39699 666.06311 388.21127 665.21875 388.03125 C 665.20876 388.02912 665.19749 388.03338 665.1875 388.03125 C 664.34312 387.85144 663.50675 387.66288 662.65625 387.5 C 662.64621 387.49808 662.63504 387.50192 662.625 387.5 C 661.77441 387.33731 660.91902 387.17682 660.0625 387.03125 C 660.05231 387.02952 660.04144 387.03298 660.03125 387.03125 C 659.1847 386.88759 658.32091 386.75176 657.46875 386.625 C 657.44833 386.62197 657.42667 386.62802 657.40625 386.625 C 657.17792 386.59115 656.94747 386.56388 656.71875 386.53125 C 655.31356 386.33078 653.91961 386.15391 652.5 386 C 652.39495 385.98861 652.29262 385.97988 652.1875 385.96875 C 652.1772 385.96766 652.16655 385.96984 652.15625 385.96875 C 651.28279 385.87648 650.40989 385.79316 649.53125 385.71875 C 649.52087 385.71787 649.51039 385.71963 649.5 385.71875 C 648.63147 385.64541 647.74842 385.5557 646.875 385.5 C 646.8545 385.4987 646.83301 385.50129 646.8125 385.5 C 645.92869 385.44407 645.04488 385.41269 644.15625 385.375 C 644.14581 385.37456 644.13544 385.37544 644.125 385.375 C 643.23633 385.33752 642.36205 385.3003 641.46875 385.28125 C 641.45837 385.28103 641.44788 385.28147 641.4375 385.28125 C 640.54404 385.26241 639.6479 385.25022 638.75 385.25 C 638.74296 356.19348 628.93923 329.41446 612.46875 308.03125 z M 131.78125 385.25 C 63.866149 385.25 8.413461 438.74629 5.21875 505.875 C 8.3868795 452.00156 53.117106 409.25 107.78125 409.25 C 134.23268 409.24999 158.37599 419.24899 176.59375 435.6875 C 185.81237 425.79 196.77895 417.58352 209.03125 411.53125 C 187.64036 395.05485 160.84985 385.25 131.78125 385.25 z M 892.21875 385.25 C 863.15014 385.25 836.35965 395.05485 814.96875 411.53125 C 827.22104 417.58352 838.18764 425.79 847.40625 435.6875 C 865.62399 419.24899 889.76732 409.25 916.21875 409.25 C 971.09497 409.25 1015.9563 452.33139 1018.8125 506.5 C 1015.9255 439.08604 960.33926 385.24999 892.21875 385.25 z M 258.53125 416 C 205.53926 416 162.53125 459.008 162.53125 512 C 162.53125 564.992 205.53925 608 258.53125 608 C 311.52326 608 354.53125 564.992 354.53125 512 C 354.53126 459.008 311.52325 416 258.53125 416 z M 765.46875 416 C 764.64075 416 763.79175 416.01038 762.96875 416.03125 C 762.15622 416.05212 761.33866 416.08403 760.53125 416.125 C 759.7135 416.1665 758.87474 416.21938 758.0625 416.28125 C 757.26066 416.34258 756.45248 416.41906 755.65625 416.5 C 754.84977 416.58198 754.01923 416.6794 753.21875 416.78125 C 750.82778 417.08625 748.45784 417.45973 746.125 417.9375 C 744.56312 418.25738 743.00205 418.63645 741.46875 419.03125 C 740.71184 419.2264 739.93707 419.44321 739.1875 419.65625 C 738.42837 419.87201 737.65761 420.07864 736.90625 420.3125 C 735.4132 420.77772 733.9296 421.30853 732.46875 421.84375 C 730.99863 422.38237 729.52925 422.955 728.09375 423.5625 C 727.38486 423.86275 726.66883 424.18331 725.96875 424.5 C 724.55131 425.14119 723.12979 425.79296 721.75 426.5 C 719.68881 427.55696 717.65903 428.70791 715.6875 429.90625 C 714.36795 430.7083 713.05812 431.54338 711.78125 432.40625 C 710.51172 433.26466 709.25658 434.1772 708.03125 435.09375 C 707.41516 435.55459 706.79204 435.99359 706.1875 436.46875 C 705.58937 436.93911 704.99282 437.45336 704.40625 437.9375 C 702.62805 439.4052 700.88618 440.94144 699.21875 442.53125 C 698.66851 443.05612 698.13143 443.58732 697.59375 444.125 C 696.50775 445.211 695.43949 446.33201 694.40625 447.46875 C 693.88963 448.03712 693.37805 448.60682 692.875 449.1875 C 691.86889 450.34886 690.88783 451.54092 689.9375 452.75 C 688.98717 453.95908 688.08003 455.18272 687.1875 456.4375 C 686.29497 457.69228 685.42647 458.98278 684.59375 460.28125 C 683.76103 461.57972 682.95839 462.87861 682.1875 464.21875 C 681.41661 465.55889 680.67579 466.93271 679.96875 468.3125 C 679.61523 469.0024 679.27468 469.70682 678.9375 470.40625 C 677.92595 472.50455 676.98497 474.63291 676.125 476.8125 C 675.55169 478.26556 675.00342 479.73208 674.5 481.21875 C 674.24829 481.96208 674.01511 482.71739 673.78125 483.46875 C 672.84581 486.47419 672.046 489.5325 671.40625 492.65625 C 671.08638 494.21812 670.80543 495.78657 670.5625 497.375 C 670.07664 500.55186 669.75973 503.79152 669.59375 507.0625 C 669.55225 507.88025 669.52087 508.70825 669.5 509.53125 C 669.47913 510.35425 669.46875 511.172 669.46875 512 C 669.46875 513.656 669.51076 515.30201 669.59375 516.9375 C 669.75973 520.20848 670.07664 523.44814 670.5625 526.625 C 670.80543 528.21343 671.08638 529.78188 671.40625 531.34375 C 672.046 534.4675 672.84581 537.52581 673.78125 540.53125 C 674.01511 541.28261 674.24829 542.03792 674.5 542.78125 C 675.00342 544.26792 675.55169 545.73444 676.125 547.1875 C 676.98497 549.36709 677.92595 551.49545 678.9375 553.59375 C 679.27468 554.29318 679.61523 554.9976 679.96875 555.6875 C 680.67579 557.06729 681.41661 558.44111 682.1875 559.78125 C 682.95839 561.12139 683.76103 562.42028 684.59375 563.71875 C 685.42647 565.01722 686.29497 566.30772 687.1875 567.5625 C 688.08003 568.81728 688.98717 570.04092 689.9375 571.25 C 690.88783 572.45908 691.86889 573.65114 692.875 574.8125 C 693.37805 575.39318 693.88963 575.96288 694.40625 576.53125 C 695.43949 577.66799 696.50775 578.789 697.59375 579.875 C 698.13675 580.418 698.66294 580.93881 699.21875 581.46875 C 699.22419 581.47394 699.24455 581.46356 699.25 581.46875 C 699.80049 581.99337 700.34344 582.55094 700.90625 583.0625 C 700.91181 583.06756 700.93194 583.05744 700.9375 583.0625 C 701.50023 583.57375 702.05021 584.0958 702.625 584.59375 C 703.21144 585.10204 703.80751 585.56831 704.40625 586.0625 C 704.99898 586.55173 705.58296 587.05609 706.1875 587.53125 C 707.40262 588.48682 708.64494 589.38408 709.90625 590.28125 C 710.53364 590.72751 711.14281 591.16231 711.78125 591.59375 C 711.78835 591.59855 711.8054 591.58895 711.8125 591.59375 C 712.44389 592.02018 713.0768 592.46331 713.71875 592.875 C 715.67338 594.12926 717.67079 595.29327 719.71875 596.40625 C 720.39886 596.77586 721.0601 597.14648 721.75 597.5 C 721.75816 597.50418 721.77309 597.49582 721.78125 597.5 C 722.46298 597.84908 723.15272 598.19812 723.84375 598.53125 C 724.55147 598.87268 725.25152 599.17556 725.96875 599.5 C 726.67747 599.82059 727.376 600.13375 728.09375 600.4375 C 728.1025 600.4412 728.11625 600.4338 728.125 600.4375 C 728.83402 600.7373 729.53242 601.06063 730.25 601.34375 C 731.71179 601.92102 733.19167 602.46223 734.6875 602.96875 C 735.43084 603.22046 736.15489 603.45364 736.90625 603.6875 C 737.66698 603.92454 738.4188 604.12527 739.1875 604.34375 C 739.94663 604.55951 740.7021 604.77135 741.46875 604.96875 C 741.4784 604.97124 741.49035 604.96626 741.5 604.96875 C 742.25696 605.1634 743.0172 605.35474 743.78125 605.53125 C 746.11261 606.07064 748.45097 606.54031 750.84375 606.90625 C 751.63796 607.02771 752.41827 607.1169 753.21875 607.21875 C 754.02937 607.32216 754.83947 607.41697 755.65625 607.5 C 756.46273 607.58198 757.25026 607.65688 758.0625 607.71875 C 758.885 607.78166 759.7031 607.83298 760.53125 607.875 C 761.349 607.9165 762.14575 607.94788 762.96875 607.96875 C 763.80209 607.99015 764.63028 608 765.46875 608 C 766.29675 608 767.1145 607.98962 767.9375 607.96875 C 789.33547 607.42603 809.00076 599.88549 824.71875 587.53125 C 825.317 587.06103 825.91331 586.5465 826.5 586.0625 C 827.09273 585.57327 827.70057 585.0968 828.28125 584.59375 C 830.0176 583.08952 831.68844 581.4983 833.3125 579.875 C 833.86095 579.32681 834.40237 578.78001 834.9375 578.21875 C 836.52731 576.55132 838.06355 574.8407 839.53125 573.0625 C 840.50972 571.87703 841.45332 570.66968 842.375 569.4375 C 843.29668 568.20532 844.19962 566.93313 845.0625 565.65625 C 845.92538 564.37937 846.76045 563.1008 847.5625 561.78125 C 848.36455 560.4617 849.13578 559.11022 849.875 557.75 C 850.98383 555.70967 852.00697 553.62615 852.96875 551.5 C 853.28934 550.79128 853.6025 550.0615 853.90625 549.34375 C 854.51375 547.90825 855.08638 546.47012 855.625 545 C 856.43293 542.79482 857.16523 540.55865 857.8125 538.28125 C 858.24401 536.76299 858.64241 535.20409 859 533.65625 C 859.35759 532.10841 859.6871 530.5754 859.96875 529 C 860.2504 527.4246 860.4838 525.8197 860.6875 524.21875 C 861.19675 520.21637 861.46875 516.14 861.46875 512 C 861.46875 511.172 861.45837 510.35425 861.4375 509.53125 C 861.354 506.23925 861.0949 502.98315 860.6875 499.78125 C 860.4838 498.1803 860.2504 496.5754 859.96875 495 C 859.6871 493.4246 859.35759 491.89159 859 490.34375 C 858.64241 488.79591 858.24401 487.23701 857.8125 485.71875 C 857.16523 483.44135 856.43293 481.20518 855.625 479 C 855.08638 477.52988 854.51375 476.09175 853.90625 474.65625 C 853.6025 473.9385 853.28934 473.20872 852.96875 472.5 C 852.00697 470.37385 850.98383 468.29033 849.875 466.25 C 849.13578 464.88978 848.36455 463.5383 847.5625 462.21875 C 846.76045 460.8992 845.92537 459.62063 845.0625 458.34375 C 844.19963 457.06687 843.29668 455.79468 842.375 454.5625 C 841.45332 453.33032 840.50972 452.12297 839.53125 450.9375 C 838.06355 449.1593 836.52731 447.44868 834.9375 445.78125 C 834.40237 445.21999 833.86095 444.67319 833.3125 444.125 C 832.7695 443.582 832.24331 443.06119 831.6875 442.53125 C 830.01428 440.93593 828.28475 439.40986 826.5 437.9375 C 825.90727 437.44827 825.32329 436.94391 824.71875 436.46875 C 824.10766 435.98844 823.49789 435.55943 822.875 435.09375 C 822.26559 434.6379 821.65172 434.16034 821.03125 433.71875 C 821.02427 433.71379 821.00698 433.72371 821 433.71875 C 807.19743 423.90093 790.71306 417.64231 772.84375 416.28125 C 770.40703 416.09565 767.95275 416 765.46875 416 z M 258.53125 432 C 302.69127 432 338.53126 467.83998 338.53125 512 C 338.53126 556.16001 302.69126 592.00001 258.53125 592 C 214.37125 592 178.53125 556.16 178.53125 512 C 178.53125 467.83999 214.37125 432 258.53125 432 z M 765.46875 432 C 766.15875 432 766.84542 432.01385 767.53125 432.03125 C 788.79206 432.5705 807.9725 441.41 822 455.4375 C 823.81 457.2475 825.55672 459.14922 827.1875 461.125 C 828.00289 462.11289 828.79443 463.12943 829.5625 464.15625 C 831.09863 466.20988 832.53824 468.33199 833.875 470.53125 C 835.21176 472.73051 836.43855 474.98105 837.5625 477.3125 C 839.81039 481.97539 841.62148 486.88898 842.9375 492 C 843.43101 493.91663 843.86668 495.87449 844.21875 497.84375 C 844.45346 499.15659 844.64275 500.47837 844.8125 501.8125 C 845.152 504.48075 845.36792 507.19417 845.4375 509.9375 C 845.4549 510.62333 845.46875 511.31 845.46875 512 C 845.46875 512.69 845.4549 513.37667 845.4375 514.0625 C 845.36792 516.80583 845.152 519.51925 844.8125 522.1875 C 844.64275 523.52163 844.45346 524.84341 844.21875 526.15625 C 843.86668 528.12551 843.43101 530.08337 842.9375 532 C 841.62148 537.11102 839.81039 542.02461 837.5625 546.6875 C 836.43855 549.01895 835.21176 551.26949 833.875 553.46875 C 832.53824 555.66801 831.09863 557.79012 829.5625 559.84375 C 828.79443 560.87057 828.00289 561.88711 827.1875 562.875 C 825.55672 564.85078 823.81 566.7525 822 568.5625 C 807.9725 582.59 788.79206 591.4295 767.53125 591.96875 C 766.84542 591.98615 766.15875 592 765.46875 592 C 764.7683 592 764.07115 591.98667 763.375 591.96875 C 762.68917 591.95135 762.02521 591.94083 761.34375 591.90625 C 759.98084 591.83709 758.62539 591.73039 757.28125 591.59375 C 756.60918 591.52543 755.94831 591.42863 755.28125 591.34375 C 747.93387 590.40889 740.89937 588.50906 734.3125 585.71875 C 733.11625 585.2125 731.94697 584.65572 730.78125 584.09375 C 728.44181 582.96595 726.17507 581.7483 723.96875 580.40625 C 722.86912 579.73787 721.81406 579.06281 720.75 578.34375 C 719.67914 577.62009 718.62688 576.86703 717.59375 576.09375 C 716.57349 575.33059 715.57558 574.52864 714.59375 573.71875 C 714.58765 573.71371 714.5686 573.72379 714.5625 573.71875 C 713.57461 572.90336 712.63479 572.07978 711.6875 571.21875 C 709.79293 569.49668 707.97207 567.67582 706.25 565.78125 C 703.66689 562.93939 701.28219 559.91094 699.125 556.71875 C 697.68688 554.59063 696.35703 552.39203 695.125 550.125 C 693.89297 547.85797 692.7625 545.5175 691.75 543.125 C 690.7375 540.7325 689.84203 538.28578 689.0625 535.78125 C 688.28297 533.27672 687.62687 530.72813 687.09375 528.125 C 686.96047 527.47422 686.83611 526.81267 686.71875 526.15625 C 686.36668 524.18699 686.07996 522.20371 685.875 520.1875 C 685.73836 518.84336 685.63166 517.48791 685.5625 516.125 C 685.49334 514.76209 685.46875 513.38 685.46875 512 C 685.46875 510.62 685.49334 509.23791 685.5625 507.875 C 685.63166 506.51209 685.73836 505.15664 685.875 503.8125 C 686.07996 501.79629 686.36668 499.81301 686.71875 497.84375 C 686.83611 497.18733 686.96047 496.52578 687.09375 495.875 C 687.62687 493.27187 688.28297 490.72328 689.0625 488.21875 C 689.84203 485.71422 690.7375 483.2675 691.75 480.875 C 692.7625 478.4825 693.89297 476.14203 695.125 473.875 C 696.35703 471.60797 697.68688 469.40938 699.125 467.28125 C 701.28219 464.08906 703.66689 461.06061 706.25 458.21875 C 708.82778 455.38275 711.60567 452.72324 714.5625 450.28125 C 716.53828 448.65047 718.62187 447.09437 720.75 445.65625 C 721.80677 444.94212 722.8769 444.2579 723.96875 443.59375 C 725.06838 442.92537 726.21023 442.27227 727.34375 441.65625 C 729.60255 440.42869 731.92912 439.29089 734.3125 438.28125 C 735.50875 437.775 736.74365 437.2926 737.96875 436.84375 C 744.09424 434.59951 750.56055 433.08945 757.28125 432.40625 C 757.95332 432.33793 758.63563 432.27031 759.3125 432.21875 C 760.65599 432.11642 762.01384 432.0663 763.375 432.03125 C 764.06083 432.01386 764.77875 432 765.46875 432 z M 258.53125 480 C 240.86726 480 226.53125 494.336 226.53125 512 C 226.53125 529.664 240.86725 544 258.53125 544 C 276.19526 544 290.53125 529.664 290.53125 512 C 290.53126 494.336 276.19525 480 258.53125 480 z M 765.46875 480 C 763.81275 480 762.18218 480.13207 760.59375 480.375 C 760.06427 480.45598 759.52063 480.54962 759 480.65625 C 758.48948 480.76131 757.9701 480.87091 757.46875 481 C 756.95765 481.1316 756.43841 481.28159 755.9375 481.4375 C 755.44618 481.59092 754.9496 481.76133 754.46875 481.9375 C 753.97871 482.11704 753.4785 482.32875 753 482.53125 C 751.5739 483.13628 750.18651 483.82783 748.875 484.625 C 748.43515 484.89235 747.98812 485.18113 747.5625 485.46875 C 747.14403 485.75202 746.71655 486.07277 746.3125 486.375 C 745.49105 486.98945 744.69533 487.62367 743.9375 488.3125 C 743.18572 488.99679 742.46502 489.74774 741.78125 490.5 C 740.40359 492.01566 739.16316 493.64684 738.09375 495.40625 C 737.55905 496.28595 737.07458 497.19242 736.625 498.125 C 736.17542 499.05758 735.76533 500.01992 735.40625 501 C 735.04717 501.98008 734.73195 502.9778 734.46875 504 C 734.07395 505.5333 733.78897 507.10578 733.625 508.71875 C 733.57034 509.25641 733.52766 509.79859 733.5 510.34375 C 733.47234 510.88891 733.46875 511.448 733.46875 512 C 733.46875 513.104 733.51569 514.20594 733.625 515.28125 C 733.78897 516.89422 734.07395 518.4667 734.46875 520 C 734.73195 521.0222 735.04717 522.01992 735.40625 523 C 735.76533 523.98008 736.17542 524.94242 736.625 525.875 C 737.07458 526.80758 737.55905 527.71405 738.09375 528.59375 C 739.16316 530.35316 740.40359 531.98434 741.78125 533.5 C 742.12566 533.87891 742.48175 534.263 742.84375 534.625 C 743.20575 534.987 743.55859 535.34309 743.9375 535.6875 C 743.94306 535.69256 743.96319 535.68244 743.96875 535.6875 C 744.34206 536.02632 744.7047 536.36639 745.09375 536.6875 C 745.49477 537.01899 745.89542 537.31302 746.3125 537.625 C 746.72323 537.93223 747.13687 538.24362 747.5625 538.53125 C 748.84558 539.39978 750.1873 540.16573 751.59375 540.84375 C 752.06004 541.06854 752.5215 541.26625 753 541.46875 C 753.48703 541.67537 753.96975 541.87968 754.46875 542.0625 C 754.95879 542.24204 755.43659 542.40659 755.9375 542.5625 C 756.4476 542.72179 756.94807 542.86593 757.46875 543 C 757.97985 543.1316 758.47937 543.23712 759 543.34375 C 761.09173 543.77422 763.25022 544 765.46875 544 C 766.01034 544 766.55874 543.99539 767.09375 543.96875 C 775.27121 543.55379 782.6325 540.055 788.0625 534.625 C 788.79233 533.8962 789.49915 533.13986 790.15625 532.34375 C 790.80856 531.55344 791.42475 530.72625 792 529.875 C 792.57525 529.02375 793.10094 528.15681 793.59375 527.25 C 794.08656 526.34319 794.5325 525.3945 794.9375 524.4375 C 795.7475 522.5235 796.386 520.52 796.8125 518.4375 C 796.91913 517.91688 797.01277 517.40448 797.09375 516.875 C 797.33668 515.28657 797.46875 513.656 797.46875 512 C 797.46875 510.344 797.33668 508.71343 797.09375 507.125 C 797.01277 506.59552 796.91913 506.08312 796.8125 505.5625 C 796.386 503.48 795.7475 501.4765 794.9375 499.5625 C 794.5325 498.6055 794.08656 497.65681 793.59375 496.75 C 793.10094 495.84319 792.57525 494.97625 792 494.125 C 791.42475 493.27375 790.80856 492.44656 790.15625 491.65625 C 789.49915 490.86014 788.79232 490.1038 788.0625 489.375 C 782.2705 483.583 774.30075 480 765.46875 480 z M 518.125 512.125 C 571.99844 515.29307 614.75 560.05461 614.75 614.71875 C 614.75 614.72921 614.75 614.73954 614.75 614.75 C 614.73954 614.75 614.72921 614.75 614.71875 614.75 C 613.8431 614.75 612.96419 614.74056 612.09375 614.71875 C 611.29038 614.69872 610.4862 614.66339 609.6875 614.625 C 609.62518 614.62199 609.56229 614.62812 609.5 614.625 C 608.72318 614.58626 607.95969 614.52468 607.1875 614.46875 C 606.42125 614.41319 605.66777 614.35355 604.90625 614.28125 C 604.44748 614.2378 603.98825 614.20572 603.53125 614.15625 C 602.96781 614.09514 602.40444 614.00769 601.84375 613.9375 C 601.00112 613.83214 600.14868 613.71941 599.3125 613.59375 C 598.66458 613.49638 598.01891 613.39067 597.375 613.28125 C 597.33266 613.27405 597.29232 613.25725 597.25 613.25 C 596.74846 613.16412 596.24903 613.09313 595.75 613 C 595.38395 612.93164 595.02093 612.85348 594.65625 612.78125 C 593.9596 612.64334 593.28527 612.49569 592.59375 612.34375 C 591.88548 612.18815 591.17148 612.04514 590.46875 611.875 C 590.21803 611.8143 589.96875 611.75004 589.71875 611.6875 C 589.58476 611.65397 589.44628 611.62781 589.3125 611.59375 C 588.55602 611.40117 587.78094 611.17803 587.03125 610.96875 C 586.53816 610.8311 586.05257 610.70729 585.5625 610.5625 C 585.26055 610.47322 584.95704 610.37322 584.65625 610.28125 C 584.62483 610.27164 584.59391 610.25963 584.5625 610.25 C 584.04222 610.09037 583.51674 609.91763 583 609.75 C 582.31568 609.52803 581.64671 609.29836 580.96875 609.0625 C 579.85181 608.67413 578.75534 608.26921 577.65625 607.84375 C 577.27471 607.69599 576.87932 607.55842 576.5 607.40625 C 576.18881 607.28141 575.87218 607.15904 575.5625 607.03125 C 575.43777 606.97979 575.31198 606.92694 575.1875 606.875 C 574.52689 606.59933 573.87231 606.32023 573.21875 606.03125 C 573.12467 605.98965 573.03143 605.94812 572.9375 605.90625 C 572.34547 605.64233 571.77357 605.33723 571.1875 605.0625 C 570.78308 604.87289 570.37028 604.6947 569.96875 604.5 C 569.25651 604.15474 568.54672 603.7986 567.84375 603.4375 C 567.39458 603.20677 566.94531 602.98712 566.5 602.75 C 566.33245 602.66074 566.167 602.55891 566 602.46875 C 565.68778 602.30025 565.37277 602.14038 565.0625 601.96875 C 564.70859 601.77295 564.35134 601.57484 564 601.375 C 563.40899 601.03886 562.83363 600.69119 562.25 600.34375 C 562.05359 600.2268 561.85181 600.11822 561.65625 600 C 561.16119 599.70078 560.64581 599.40104 560.15625 599.09375 C 560.02906 599.01387 559.90807 598.92417 559.78125 598.84375 C 559.22066 598.48848 558.67819 598.11574 558.125 597.75 C 557.66773 597.44751 557.20212 597.15331 556.75 596.84375 C 556.40489 596.60746 556.06081 596.36537 555.71875 596.125 C 555.18056 595.74696 554.65556 595.35678 554.125 594.96875 C 554.02173 594.8932 553.91548 594.82592 553.8125 594.75 C 553.26516 594.34658 552.72649 593.94519 552.1875 593.53125 C 552.10487 593.46776 552.01993 593.40748 551.9375 593.34375 C 551.62152 593.09955 551.31305 592.84153 551 592.59375 C 550.69802 592.35462 550.39297 592.11744 550.09375 591.875 C 549.52512 591.4145 548.96478 590.94104 548.40625 590.46875 C 548.36642 590.43506 548.32103 590.40875 548.28125 590.375 C 547.94849 590.09276 547.61036 589.81763 547.28125 589.53125 C 547.0189 589.30288 546.76 589.07473 546.5 588.84375 C 545.92012 588.32881 545.34929 587.77773 544.78125 587.25 C 544.77568 587.24482 544.75557 587.25518 544.75 587.25 C 544.16566 586.70688 543.60282 586.15017 543.03125 585.59375 C 542.48421 585.06079 541.94135 584.51369 541.40625 583.96875 C 541.3752 583.93715 541.34351 583.90664 541.3125 583.875 C 540.79863 583.35034 540.28387 582.81677 539.78125 582.28125 C 539.73076 582.22748 539.67537 582.17888 539.625 582.125 C 539.39223 581.87594 539.16781 581.62637 538.9375 581.375 C 538.62359 581.03251 538.3093 580.69048 538 580.34375 C 537.54077 579.82869 537.07394 579.30553 536.625 578.78125 C 536.54708 578.69031 536.48386 578.59122 536.40625 578.5 C 535.97885 577.9974 535.54283 577.51086 535.125 577 C 535.07364 576.93722 535.01997 576.8754 534.96875 576.8125 C 534.72522 576.5133 534.49022 576.20823 534.25 575.90625 C 533.96023 575.54215 533.65991 575.1806 533.375 574.8125 C 533.32922 574.75332 533.29565 574.68428 533.25 574.625 C 532.82924 574.07894 532.40995 573.52342 532 572.96875 C 531.76402 572.64926 531.54485 572.3223 531.3125 572 C 531.10758 571.71595 530.88958 571.44247 530.6875 571.15625 C 530.51983 570.91858 530.3532 570.67665 530.1875 570.4375 C 529.81524 569.90063 529.45597 569.35672 529.09375 568.8125 C 528.79596 568.36493 528.50967 567.92122 528.21875 567.46875 C 528.07282 567.24189 527.92543 567.00933 527.78125 566.78125 C 527.3478 566.09514 526.91753 565.41569 526.5 564.71875 C 525.84247 563.62119 525.21098 562.4986 524.59375 561.375 C 524.53791 561.27343 524.493 561.16428 524.4375 561.0625 C 524.22812 560.67824 524.0171 560.29345 523.8125 559.90625 C 523.52595 559.3644 523.24584 558.82877 522.96875 558.28125 C 522.78358 557.91522 522.58715 557.55603 522.40625 557.1875 C 522.29004 556.95077 522.17694 556.7065 522.0625 556.46875 C 521.90667 556.14493 521.74627 555.82569 521.59375 555.5 C 521.4574 555.20899 521.32119 554.91748 521.1875 554.625 C 520.9778 554.16596 520.76561 553.71263 520.5625 553.25 C 520.38154 552.83799 520.20693 552.41481 520.03125 552 C 519.96014 551.83197 519.88274 551.66849 519.8125 551.5 C 519.51649 550.79063 519.24919 550.06105 518.96875 549.34375 C 518.66984 548.57815 518.37469 547.80563 518.09375 547.03125 C 517.99187 546.75043 517.88074 546.46945 517.78125 546.1875 C 517.6046 545.68745 517.45033 545.19106 517.28125 544.6875 C 517.01854 543.90459 516.74423 543.10368 516.5 542.3125 C 516.42876 542.08172 516.3509 541.85647 516.28125 541.625 C 516.11261 541.06477 515.97178 540.50171 515.8125 539.9375 C 515.75352 539.72848 515.68268 539.52206 515.625 539.3125 C 515.46266 538.72295 515.30829 538.12498 515.15625 537.53125 C 515.10822 537.34357 515.04699 537.15685 515 536.96875 C 514.84547 536.35058 514.70576 535.71629 514.5625 535.09375 C 514.52383 534.92557 514.47534 534.76225 514.4375 534.59375 C 514.29252 533.94888 514.16402 533.30564 514.03125 532.65625 C 514.00175 532.51175 513.96639 532.36347 513.9375 532.21875 C 513.47353 529.8946 513.08539 527.53395 512.78125 525.15625 C 512.77322 525.09351 512.75791 525.03153 512.75 524.96875 C 512.65243 524.19443 512.58021 523.40457 512.5 522.625 C 512.32568 520.92872 512.18442 519.21964 512.09375 517.5 C 512.59249 529.16641 514.67625 540.41806 518.125 551.0625 C 518.92776 553.54019 519.80133 555.96662 520.75 558.375 C 521.37814 559.96966 522.02856 561.56264 522.71875 563.125 C 522.76424 563.22796 522.798 563.33468 522.84375 563.4375 C 523.14548 564.11636 523.468 564.76499 523.78125 565.4375 C 523.8973 565.68647 524.00739 565.93941 524.125 566.1875 C 524.73889 567.48241 525.37521 568.76088 526.03125 570.03125 C 526.29961 570.55091 526.56844 571.0783 526.84375 571.59375 C 526.97172 571.83353 527.12053 572.07364 527.25 572.3125 C 527.6524 573.05421 528.05208 573.79855 528.46875 574.53125 C 528.78522 575.08774 529.11289 575.6363 529.4375 576.1875 C 529.54573 576.37139 529.64087 576.5667 529.75 576.75 C 529.76919 576.78221 529.79328 576.81155 529.8125 576.84375 C 530.22841 577.54093 530.66491 578.21781 531.09375 578.90625 C 531.53455 579.61343 531.952 580.33346 532.40625 581.03125 C 532.41875 581.05046 532.42499 581.07454 532.4375 581.09375 C 532.90112 581.80507 533.39758 582.48615 533.875 583.1875 C 535.27791 585.24846 536.73124 587.27839 538.25 589.25 C 538.27663 589.28459 538.31708 589.30918 538.34375 589.34375 C 539.33804 590.63175 540.33296 591.90821 541.375 593.15625 C 541.45118 593.24756 541.51731 593.34641 541.59375 593.4375 C 541.72774 593.59706 541.86524 593.74736 542 593.90625 C 542.37842 594.35278 542.77179 594.77756 543.15625 595.21875 C 543.71125 595.85534 544.27635 596.49969 544.84375 597.125 C 545.4074 597.74617 545.9868 598.35889 546.5625 598.96875 C 547.06504 599.5011 547.55091 600.0389 548.0625 600.5625 C 548.73464 601.25064 549.43747 601.92099 550.125 602.59375 C 550.72734 603.18299 551.32356 603.76651 551.9375 604.34375 C 552.55699 604.92621 553.1814 605.49246 553.8125 606.0625 C 554.22944 606.4391 554.64056 606.81639 555.0625 607.1875 C 555.41845 607.50067 555.76553 607.81578 556.125 608.125 C 556.35503 608.32283 556.58104 608.52255 556.8125 608.71875 C 557.07866 608.94442 557.35696 609.15149 557.625 609.375 C 558.12482 609.79169 558.61872 610.2159 559.125 610.625 C 559.27958 610.74996 559.43857 610.87576 559.59375 611 C 560.91649 612.05861 562.25973 613.0878 563.625 614.09375 C 564.30619 614.59593 564.99599 615.07372 565.6875 615.5625 C 566.27838 615.97998 566.87048 616.40494 567.46875 616.8125 C 567.57317 616.88368 567.6766 616.96038 567.78125 617.03125 C 568.12202 617.26191 568.46938 617.49133 568.8125 617.71875 C 569.41779 618.12005 570.01248 618.51513 570.625 618.90625 C 570.86466 619.05931 571.10299 619.22351 571.34375 619.375 C 571.56944 619.51697 571.8046 619.64066 572.03125 619.78125 C 572.75601 620.23093 573.48436 620.65838 574.21875 621.09375 C 574.9496 621.52699 575.66604 621.95613 576.40625 622.375 C 576.43908 622.39358 576.46716 622.41895 576.5 622.4375 C 577.20829 622.83749 577.93958 623.23833 578.65625 623.625 C 579.17622 623.90555 579.69445 624.19529 580.21875 624.46875 C 580.447 624.58777 580.67719 624.69483 580.90625 624.8125 C 581.21735 624.97236 581.53116 625.12389 581.84375 625.28125 C 582.42163 625.57214 583.01085 625.87399 583.59375 626.15625 C 583.91602 626.31228 584.23872 626.47162 584.5625 626.625 C 584.8833 626.77697 585.20897 626.91315 585.53125 627.0625 C 586.12533 627.3378 586.71349 627.60868 587.3125 627.875 C 587.82423 628.10248 588.32848 628.34162 588.84375 628.5625 C 589.25997 628.74095 589.67525 628.91964 590.09375 629.09375 C 590.92479 629.43944 591.78513 629.76535 592.625 630.09375 C 592.72102 630.13127 592.81011 630.18145 592.90625 630.21875 C 593.61177 630.49262 594.31968 630.73846 595.03125 631 C 595.64351 631.225 596.25836 631.44048 596.875 631.65625 C 597.23038 631.78064 597.58068 631.90995 597.9375 632.03125 C 598.41416 632.19324 598.89582 632.34355 599.375 632.5 C 599.91475 632.67622 600.45709 632.86211 601 633.03125 C 601.29155 633.12209 601.58255 633.22371 601.875 633.3125 C 602.30876 633.44419 602.75179 633.56035 603.1875 633.6875 C 603.63809 633.81896 604.0786 633.96718 604.53125 634.09375 C 604.65547 634.1285 604.78187 634.15312 604.90625 634.1875 C 606.30091 634.57285 607.71154 634.91161 609.125 635.25 C 609.5634 635.355 609.99735 635.46207 610.4375 635.5625 C 610.63439 635.60742 610.83401 635.6435 611.03125 635.6875 C 611.53201 635.79922 612.02827 635.92547 612.53125 636.03125 C 608.72476 654.04725 600.20934 670.31548 588.3125 683.5 C 598.21001 692.7186 606.41648 703.71646 612.46875 715.96875 C 628.93923 694.58553 638.74296 667.80653 638.75 638.75 C 643.40002 638.74887 647.97942 638.4901 652.5 638 C 653.91961 637.84609 655.31356 637.66922 656.71875 637.46875 C 662.19199 636.68793 667.55619 635.55141 672.78125 634.09375 C 672.79094 634.09105 672.80281 634.09646 672.8125 634.09375 C 673.90247 633.78939 674.98456 633.45758 676.0625 633.125 C 676.63791 632.94747 677.20937 632.77923 677.78125 632.59375 C 678.32057 632.41895 678.87012 632.24432 679.40625 632.0625 C 687.01242 629.48185 694.30583 626.19024 701.1875 622.28125 C 701.91705 621.8668 702.65456 621.42841 703.375 621 C 704.56575 620.29164 705.74105 619.58959 706.90625 618.84375 C 707.16469 618.67842 707.43034 618.5109 707.6875 618.34375 C 707.69955 618.33591 707.7067 618.32034 707.71875 618.3125 C 709.12937 617.39493 710.50385 616.44016 711.875 615.46875 C 712.56418 614.98031 713.25858 614.50176 713.9375 614 C 714.61617 613.49841 715.30052 612.98345 715.96875 612.46875 C 715.21126 612.09457 714.43516 611.70315 713.6875 611.3125 C 713.67938 611.30826 713.66437 611.31674 713.65625 611.3125 C 712.90864 610.92164 712.17505 610.50084 711.4375 610.09375 C 711.42953 610.08935 711.41422 610.09815 711.40625 610.09375 C 710.66878 609.68646 709.94592 609.26704 709.21875 608.84375 C 709.21103 608.83926 709.19522 608.84824 709.1875 608.84375 C 708.4603 608.42021 707.74791 607.97056 707.03125 607.53125 C 707.02369 607.52662 707.00756 607.53588 707 607.53125 C 706.28341 607.09174 705.58081 606.64254 704.875 606.1875 C 704.8677 606.1828 704.85105 606.1922 704.84375 606.1875 C 704.1379 605.7322 703.44483 605.25186 702.75 604.78125 C 702.74297 604.7765 702.72577 604.786 702.71875 604.78125 C 702.01685 604.30562 701.34666 603.80351 700.65625 603.3125 C 699.27544 602.33047 697.89591 601.32336 696.5625 600.28125 C 694.56238 598.71808 692.63804 597.09917 690.75 595.40625 C 688.85524 593.7094 687.0247 591.94657 685.25 590.125 C 684.66018 589.51962 684.07616 588.93109 683.5 588.3125 C 682.93069 588.8262 682.36199 589.31145 681.78125 589.8125 C 681.51797 590.0397 681.26559 590.27544 681 590.5 C 680.67866 590.77167 680.35595 591.04472 680.03125 591.3125 C 679.49764 591.75265 678.94878 592.19553 678.40625 592.625 C 677.74593 593.1476 677.07956 593.64966 676.40625 594.15625 C 676.19601 594.3144 675.99274 594.46843 675.78125 594.625 C 675.37135 594.92862 674.94578 595.23362 674.53125 595.53125 C 674.5195 595.53968 674.51175 595.55408 674.5 595.5625 C 673.88739 596.00195 673.2788 596.41753 672.65625 596.84375 C 672.02163 597.27823 671.39474 597.70449 670.75 598.125 C 670.59251 598.22771 670.43933 598.33563 670.28125 598.4375 C 669.79039 598.75386 669.27779 599.06681 668.78125 599.375 C 668.33578 599.65131 667.88747 599.91786 667.4375 600.1875 C 666.56658 600.7097 665.69989 601.22187 664.8125 601.71875 C 664.71919 601.77099 664.62474 601.82305 664.53125 601.875 C 663.94919 602.19854 663.33892 602.50001 662.75 602.8125 C 662.14064 603.13584 661.5228 603.4699 660.90625 603.78125 C 660.8317 603.8189 660.76215 603.86878 660.6875 603.90625 C 660.04223 604.22985 659.40294 604.53344 658.75 604.84375 C 658.7073 604.86405 658.66773 604.886 658.625 604.90625 C 658.60379 604.9163 658.58372 604.92747 658.5625 604.9375 C 657.88234 605.2592 657.18824 605.56789 656.5 605.875 C 655.79055 606.19157 655.06157 606.51165 654.34375 606.8125 C 653.6887 607.08667 653.03686 607.36409 652.375 607.625 C 651.58823 607.93553 650.79611 608.23973 650 608.53125 C 649.73162 608.62942 649.45692 608.71651 649.1875 608.8125 C 648.25774 609.14377 647.31691 609.44495 646.375 609.75 C 646.23682 609.79475 646.10719 609.86207 645.96875 609.90625 C 645.08473 610.18857 644.17547 610.45992 643.28125 610.71875 C 643.08489 610.77553 642.88434 610.81936 642.6875 610.875 C 641.59011 611.18519 640.48702 611.47563 639.375 611.75 C 638.26298 612.02437 637.15725 612.29334 636.03125 612.53125 C 624.36829 557.0393 576.38824 514.89772 518.125 512.125 z M 503.96875 512.25 C 446.57986 515.84172 399.51454 557.66131 387.96875 612.53125 C 369.95275 608.72476 353.68452 600.20934 340.5 588.3125 C 331.2814 598.21001 320.28354 606.41648 308.03125 612.46875 C 329.41447 628.93923 356.19347 638.74296 385.25 638.75 C 385.25704 667.80652 395.06077 694.58554 411.53125 715.96875 C 417.58352 703.71645 425.79 692.71861 435.6875 683.5 C 423.79066 670.31547 415.27072 654.04272 411.46875 636.03125 C 466.9607 624.36829 509.10228 576.38824 511.875 518.125 C 508.70693 571.99844 463.94539 614.75 409.28125 614.75 C 409.27079 614.75 409.26046 614.75 409.25 614.75 C 409.25 614.73954 409.25 614.72921 409.25 614.71875 C 409.25 560.69995 450.99528 516.34692 503.96875 512.25 z M 1018.7812 518.125 C 1018.7431 518.77443 1018.6752 519.41636 1018.625 520.0625 C 1018.5586 520.91661 1018.4934 521.77686 1018.4062 522.625 C 1018.3266 523.39959 1018.253 524.16809 1018.1562 524.9375 C 1018.1471 525.01056 1018.1343 525.08324 1018.125 525.15625 C 1018.1049 525.31313 1018.0833 525.46834 1018.0625 525.625 C 1017.8603 527.1492 1017.612 528.65385 1017.3438 530.15625 C 1017.3215 530.28099 1017.304 530.40667 1017.2812 530.53125 C 1017.1529 531.23524 1017.0177 531.95733 1016.875 532.65625 C 1016.8539 532.7597 1016.8339 532.86542 1016.8125 532.96875 C 1016.664 533.68471 1016.5071 534.38332 1016.3438 535.09375 C 1016.3223 535.18713 1016.303 535.28172 1016.2812 535.375 C 1015.9241 536.90881 1015.5188 538.43087 1015.0938 539.9375 C 1015.0793 539.98866 1015.077 540.04263 1015.0625 540.09375 C 1014.8504 540.84115 1014.6348 541.57213 1014.4062 542.3125 C 1014.3936 542.35339 1014.3877 542.39663 1014.375 542.4375 C 1014.1424 543.18762 1013.8742 543.94483 1013.625 544.6875 C 1013.3623 545.47041 1013.0934 546.25687 1012.8125 547.03125 C 1012.5337 547.79971 1012.2652 548.55269 1011.9688 549.3125 C 1011.9639 549.32498 1011.9424 549.33128 1011.9375 549.34375 C 1011.6492 550.08181 1011.3673 550.83284 1011.0625 551.5625 C 1011.0535 551.58397 1011.0402 551.60354 1011.0312 551.625 C 1010.7299 552.34509 1010.4422 553.03832 1010.125 553.75 C 1010.0261 553.97204 1009.9129 554.18504 1009.8125 554.40625 C 1009.5804 554.91715 1009.3339 555.4311 1009.0938 555.9375 C 1009.0697 555.98821 1009.0554 556.04309 1009.0312 556.09375 C 1008.9406 556.28404 1008.8418 556.4666 1008.75 556.65625 C 1008.1665 557.86239 1007.5662 559.07066 1006.9375 560.25 C 1006.8983 560.32356 1006.8519 560.3953 1006.8125 560.46875 C 1006.0999 561.79765 1005.3623 563.11309 1004.5938 564.40625 C 1004.532 564.51015 1004.4684 564.61509 1004.4062 564.71875 C 1004.0593 565.29767 1003.7017 565.86604 1003.3438 566.4375 C 1003.2715 566.55294 1003.1977 566.66612 1003.125 566.78125 C 1002.6915 567.46736 1002.2616 568.13748 1001.8125 568.8125 C 1001.4507 569.35649 1001.0905 569.90086 1000.7188 570.4375 C 1000.6258 570.57165 1000.5311 570.71007 1000.4375 570.84375 C 1000.0767 571.35917 999.71368 571.86656 999.34375 572.375 C 999.2379 572.52048 999.13785 572.66759 999.03125 572.8125 C 998.66764 573.30678 998.30969 573.79376 997.9375 574.28125 C 997.81633 574.44 997.68457 574.59198 997.5625 574.75 C 997.19971 575.21951 996.83944 575.69324 996.46875 576.15625 C 996.33455 576.32391 996.19773 576.48945 996.0625 576.65625 C 996.05741 576.66253 996.06759 576.68122 996.0625 576.6875 C 995.04879 577.93728 993.97643 579.14346 992.90625 580.34375 C 992.54145 580.75286 992.18371 581.1593 991.8125 581.5625 C 991.63694 581.75321 991.45823 581.93562 991.28125 582.125 C 990.91729 582.51443 990.55741 582.89752 990.1875 583.28125 C 989.99392 583.48212 989.78895 583.6757 989.59375 583.875 C 989.02852 584.4521 988.4536 585.03004 987.875 585.59375 C 987.51981 585.93966 987.17264 586.28421 986.8125 586.625 C 986.58631 586.83911 986.35312 587.03793 986.125 587.25 C 985.7705 587.57949 985.42163 587.92548 985.0625 588.25 C 984.82264 588.46677 984.58565 588.69172 984.34375 588.90625 C 984.06057 589.15732 983.75471 589.37702 983.46875 589.625 C 983.14427 589.90647 982.82802 590.1913 982.5 590.46875 C 982.15504 590.76045 981.81758 591.05653 981.46875 591.34375 C 981.1905 591.57296 980.90569 591.80492 980.625 592.03125 C 980.29032 592.30095 979.96311 592.57818 979.625 592.84375 C 979.32682 593.07811 979.01957 593.30013 978.71875 593.53125 C 977.46524 594.49431 976.20444 595.43814 974.90625 596.34375 C 974.87557 596.36515 974.84321 596.38488 974.8125 596.40625 C 974.4924 596.62897 974.16649 596.84334 973.84375 597.0625 C 973.4954 597.29913 973.13264 597.51756 972.78125 597.75 C 972.4689 597.95656 972.15847 598.17177 971.84375 598.375 C 971.47757 598.61151 971.11936 598.86179 970.75 599.09375 C 970.44734 599.28375 970.14852 599.46933 969.84375 599.65625 C 969.45434 599.89522 969.04906 600.10985 968.65625 600.34375 C 968.36372 600.51785 968.07564 600.70373 967.78125 600.875 C 967.37545 601.11115 966.9718 601.33177 966.5625 601.5625 C 966.27157 601.72652 965.98018 601.90124 965.6875 602.0625 C 965.2664 602.29451 964.83092 602.52376 964.40625 602.75 C 964.13251 602.89576 963.86896 603.04415 963.59375 603.1875 C 963.14517 603.4213 962.70243 603.64766 962.25 603.875 C 961.98142 604.00994 961.70741 604.1486 961.4375 604.28125 C 960.97535 604.50839 960.49727 604.71714 960.03125 604.9375 C 959.37682 605.24695 958.72441 605.54781 958.0625 605.84375 C 957.97717 605.8819 957.89795 605.93083 957.8125 605.96875 C 957.5721 606.07537 957.33512 606.17642 957.09375 606.28125 C 956.58281 606.50332 956.07771 606.72354 955.5625 606.9375 C 955.3334 607.03258 955.10493 607.12528 954.875 607.21875 C 954.34473 607.43444 953.81588 607.6367 953.28125 607.84375 C 952.57588 608.11692 951.86904 608.39831 951.15625 608.65625 C 951.09438 608.67864 951.03068 608.69648 950.96875 608.71875 C 950.76085 608.7935 950.55227 608.86405 950.34375 608.9375 C 949.77369 609.13838 949.19961 609.3402 948.625 609.53125 C 948.42897 609.59641 948.2278 609.65474 948.03125 609.71875 C 947.4418 609.91076 946.84407 610.09967 946.25 610.28125 C 946.0724 610.33549 945.89676 610.3842 945.71875 610.4375 C 945.10265 610.62214 944.4959 610.79543 943.875 610.96875 C 943.07492 611.19209 942.24531 611.42068 941.4375 611.625 C 941.29076 611.66206 941.14699 611.71357 941 611.75 C 940.33926 611.91396 939.69696 612.06766 939.03125 612.21875 C 938.88653 612.2516 938.7387 612.28026 938.59375 612.3125 C 937.9222 612.46183 937.23892 612.58264 936.5625 612.71875 C 935.73999 612.88425 934.92322 613.04179 934.09375 613.1875 C 933.979 613.20766 933.86488 613.23022 933.75 613.25 C 933.03412 613.37324 932.3146 613.48542 931.59375 613.59375 C 930.75757 613.71941 929.90513 613.83214 929.0625 613.9375 C 928.98913 613.94665 928.91716 613.95975 928.84375 613.96875 C 928.71944 613.98402 928.59319 613.98517 928.46875 614 C 927.76475 614.0837 927.05203 614.18063 926.34375 614.25 C 923.01257 614.57627 919.63526 614.75 916.21875 614.75 C 915.38169 614.75 914.55107 614.73866 913.71875 614.71875 C 912.89679 614.6993 912.09834 614.66368 911.28125 614.625 C 906.36788 614.39276 901.55418 613.83648 896.84375 612.9375 C 895.28709 612.64047 893.74971 612.304 892.21875 611.9375 C 892.20898 611.93516 892.19727 611.93984 892.1875 611.9375 C 891.41722 611.75286 890.66969 611.54565 889.90625 611.34375 C 888.3693 610.93785 886.8517 610.50569 885.34375 610.03125 C 884.59464 609.79549 883.86662 609.56486 883.125 609.3125 C 880.89943 608.55614 878.7167 607.71431 876.5625 606.8125 C 875.35897 606.30809 874.14854 605.76716 872.96875 605.21875 C 872.74978 605.11696 872.53064 605.00953 872.3125 604.90625 C 872.30398 604.90222 872.28977 604.91029 872.28125 604.90625 C 871.58038 604.57417 870.91081 604.25361 870.21875 603.90625 C 869.08313 603.33625 867.95488 602.70413 866.84375 602.09375 C 866.60862 601.96458 866.35901 601.8497 866.125 601.71875 C 866.11717 601.71437 866.10158 601.72313 866.09375 601.71875 C 865.41996 601.34147 864.75808 600.95441 864.09375 600.5625 C 859.44209 597.82053 855.05032 594.7293 850.90625 591.3125 C 849.72234 590.33616 848.54486 589.33991 847.40625 588.3125 C 846.83009 588.93109 846.24607 589.51962 845.65625 590.125 C 843.88223 591.94657 842.0488 593.7094 840.15625 595.40625 C 838.26821 597.09917 836.34387 598.71808 834.34375 600.28125 C 833.01694 601.3182 831.65499 602.33504 830.28125 603.3125 C 830.27441 603.31737 830.25684 603.30763 830.25 603.3125 C 828.18678 604.77874 826.07036 606.20436 823.90625 607.53125 C 821.00965 609.30782 818.03183 610.95568 814.96875 612.46875 C 817.64261 614.5283 820.38225 616.49881 823.21875 618.34375 C 823.226 618.34847 823.24275 618.33903 823.25 618.34375 C 824.66105 619.26112 826.08223 620.138 827.53125 621 C 827.5389 621.00455 827.55485 620.99545 827.5625 621 C 831.92523 623.59407 836.4455 625.9664 841.125 628.03125 C 841.13364 628.03506 841.14761 628.02744 841.15625 628.03125 C 844.27309 629.40573 847.44532 630.65671 850.6875 631.78125 C 850.69673 631.78445 850.70952 631.77805 850.71875 631.78125 C 853.96114 632.90502 857.2694 633.91957 860.625 634.78125 C 860.63467 634.78374 860.64658 634.77877 860.65625 634.78125 C 861.48782 634.99457 862.31819 635.20949 863.15625 635.40625 C 863.16612 635.40857 863.17763 635.40393 863.1875 635.40625 C 864.87363 635.8017 866.57 636.1727 868.28125 636.5 C 868.2912 636.50191 868.30255 636.4981 868.3125 636.5 C 869.16316 636.66248 870.01841 636.82338 870.875 636.96875 C 870.88511 636.97047 870.89614 636.96703 870.90625 636.96875 C 873.49649 637.40767 876.10898 637.75226 878.75 638.03125 C 878.76028 638.03234 878.77097 638.03016 878.78125 638.03125 C 879.65477 638.12331 880.52755 638.20705 881.40625 638.28125 C 881.41662 638.28213 881.42713 638.28037 881.4375 638.28125 C 884.98376 638.57982 888.59567 638.75 892.21875 638.75 C 894.51091 638.75 896.80026 638.68284 899.0625 638.5625 C 900.60235 638.48059 902.13146 638.35523 903.65625 638.21875 C 904.03966 638.18443 904.43008 638.16273 904.8125 638.125 C 905.74839 638.03234 906.69519 637.92544 907.625 637.8125 C 907.70775 637.80245 907.7923 637.79146 907.875 637.78125 C 908.99641 637.64278 910.13785 637.51135 911.25 637.34375 C 912.17863 637.20371 913.07807 637.0351 914 636.875 C 914.10451 636.85687 914.20808 636.83089 914.3125 636.8125 C 914.70662 636.74302 915.10714 636.66686 915.5 636.59375 C 916.13337 636.47599 916.77623 636.37715 917.40625 636.25 C 918.28715 636.07213 919.15706 635.88356 920.03125 635.6875 C 920.16693 635.65709 920.30198 635.62459 920.4375 635.59375 C 921.29996 635.39732 922.14432 635.1827 923 634.96875 C 923.14528 634.93247 923.29242 634.91178 923.4375 634.875 C 923.82264 634.77724 924.21002 634.66378 924.59375 634.5625 C 925.2118 634.39951 925.82318 634.23456 926.4375 634.0625 C 927.4251 633.78589 928.3973 633.48731 929.375 633.1875 C 930.3604 632.88533 931.33747 632.5754 932.3125 632.25 C 934.02216 631.67942 935.72986 631.07815 937.40625 630.4375 C 937.62612 630.35348 937.84322 630.27271 938.0625 630.1875 C 938.77817 629.90932 939.47819 629.6345 940.1875 629.34375 C 940.4156 629.25028 940.64757 629.15726 940.875 629.0625 C 940.96031 629.02694 941.03978 628.97324 941.125 628.9375 C 941.97901 628.57947 942.84311 628.21983 943.6875 627.84375 C 944.61235 627.43184 945.52449 626.99577 946.4375 626.5625 C 947.34821 626.13032 948.25763 625.70311 949.15625 625.25 C 949.78346 624.93362 950.41006 624.6077 951.03125 624.28125 C 951.30355 624.13821 951.57262 623.98871 951.84375 623.84375 C 952.44863 623.52023 953.05727 623.208 953.65625 622.875 C 953.93937 622.71767 954.21821 622.56568 954.5 622.40625 C 955.07841 622.07889 955.64603 621.7424 956.21875 621.40625 C 956.51419 621.23287 956.79985 621.0507 957.09375 620.875 C 957.64222 620.54709 958.20694 620.21093 958.75 619.875 C 959.06197 619.68196 959.37734 619.47692 959.6875 619.28125 C 960.2189 618.94614 960.75521 618.62399 961.28125 618.28125 C 961.59769 618.07506 961.90427 617.86519 962.21875 617.65625 C 962.72754 617.31827 963.21515 616.97009 963.71875 616.625 C 964.04007 616.40478 964.36832 616.19184 964.6875 615.96875 C 965.17895 615.62525 965.66992 615.28776 966.15625 614.9375 C 966.4835 614.70184 966.8001 614.45745 967.125 614.21875 C 967.93502 613.62364 968.73604 613.02 969.53125 612.40625 C 970.32282 611.79531 971.09843 611.16034 971.875 610.53125 C 972.30174 610.18558 972.73412 609.85107 973.15625 609.5 C 973.50344 609.21124 973.84346 608.91738 974.1875 608.625 C 974.59135 608.28182 975.00678 607.94188 975.40625 607.59375 C 975.76069 607.28479 976.11779 606.96907 976.46875 606.65625 C 976.85325 606.31361 977.24472 605.97223 977.625 605.625 C 977.98549 605.29577 978.33084 604.95832 978.6875 604.625 C 979.41459 603.9455 980.13283 603.25876 980.84375 602.5625 C 981.1904 602.22305 981.53224 601.87463 981.875 601.53125 C 982.24079 601.16475 982.60744 600.80844 982.96875 600.4375 C 983.29429 600.10338 983.61563 599.77518 983.9375 599.4375 C 984.30483 599.05202 984.66875 598.67133 985.03125 598.28125 C 985.33433 597.9552 985.63783 597.61048 985.9375 597.28125 C 986.31293 596.86855 986.69246 596.4489 987.0625 596.03125 C 987.34956 595.7075 987.62247 595.3892 987.90625 595.0625 C 988.27492 594.6379 988.63692 594.21078 989 593.78125 C 989.2707 593.46109 989.54493 593.13537 989.8125 592.8125 C 990.18531 592.36248 990.57082 591.92398 990.9375 591.46875 C 991.18824 591.15762 991.43965 590.84478 991.6875 590.53125 C 992.05982 590.05999 992.41551 589.57039 992.78125 589.09375 C 993.35826 588.34178 993.9396 587.57764 994.5 586.8125 C 994.5306 586.77073 994.5632 586.72931 994.59375 586.6875 C 994.81422 586.38586 995.03214 586.0849 995.25 585.78125 C 995.61806 585.26807 995.9832 584.76887 996.34375 584.25 C 996.54442 583.96137 996.73918 583.66537 996.9375 583.375 C 997.30417 582.83777 997.67267 582.29311 998.03125 581.75 C 998.21772 581.46776 998.40948 581.19006 998.59375 580.90625 C 998.95753 580.34562 999.30114 579.78544 999.65625 579.21875 C 999.8259 578.94823 999.98859 578.67814 1000.1562 578.40625 C 1000.6434 577.61561 1001.1236 576.80201 1001.5938 576 C 1001.6244 575.94771 1001.6569 575.89609 1001.6875 575.84375 C 1002.037 575.24564 1002.3788 574.63555 1002.7188 574.03125 C 1002.8644 573.77238 1003.0124 573.50999 1003.1562 573.25 C 1003.5043 572.62082 1003.8499 572.01066 1004.1875 571.375 C 1004.3146 571.13592 1004.4369 570.89624 1004.5625 570.65625 C 1004.9037 570.00362 1005.2324 569.34674 1005.5625 568.6875 C 1005.6772 568.4587 1005.7929 568.22959 1005.9062 568 C 1006.2361 567.33124 1006.5879 566.6441 1006.9062 565.96875 C 1007.0141 565.74003 1007.1122 565.51072 1007.2188 565.28125 C 1007.5376 564.59427 1007.8494 563.91233 1008.1562 563.21875 C 1008.2521 563.00203 1008.3428 562.77986 1008.4375 562.5625 C 1008.7499 561.84524 1009.0443 561.13034 1009.3438 560.40625 C 1009.426 560.2075 1009.5125 560.01176 1009.5938 559.8125 C 1009.6271 559.73058 1009.6543 559.6445 1009.6875 559.5625 C 1010.3366 557.96148 1010.9777 556.35147 1011.5625 554.71875 C 1011.6255 554.54275 1011.6877 554.36386 1011.75 554.1875 C 1012.0266 553.40389 1012.301 552.60308 1012.5625 551.8125 C 1012.6172 551.64708 1012.6647 551.47822 1012.7188 551.3125 C 1012.9837 550.50015 1013.2199 549.69446 1013.4688 548.875 C 1013.513 548.72939 1013.55 548.58333 1013.5938 548.4375 C 1013.8844 547.46882 1014.1695 546.50951 1014.4375 545.53125 C 1014.6361 544.80554 1014.814 544.07458 1015 543.34375 C 1015.0643 543.09155 1015.156 542.84655 1015.2188 542.59375 C 1015.4631 541.60785 1015.6852 540.61984 1015.9062 539.625 C 1016.1264 538.63558 1016.3344 537.62295 1016.5312 536.625 C 1016.7147 535.69339 1016.8996 534.7513 1017.0625 533.8125 C 1017.0751 533.74008 1017.0813 533.66621 1017.0938 533.59375 C 1017.2355 532.76789 1017.3743 531.92498 1017.5 531.09375 C 1017.5629 530.67847 1017.6287 530.26034 1017.6875 529.84375 C 1017.7934 529.09259 1017.9073 528.34907 1018 527.59375 C 1018.0051 527.55251 1017.995 527.51 1018 527.46875 C 1018.1214 526.47196 1018.2457 525.47252 1018.3438 524.46875 C 1018.3468 524.43772 1018.3407 524.40603 1018.3438 524.375 C 1018.4421 523.3606 1018.5195 522.33373 1018.5938 521.3125 C 1018.5953 521.29182 1018.5923 521.27069 1018.5938 521.25 C 1018.669 520.20792 1018.7313 519.17389 1018.7812 518.125 z M 5.34375 520.03125 C 9.4927127 586.25802 64.514476 638.75001 131.78125 638.75 C 160.84985 638.75 187.64035 628.94515 209.03125 612.46875 C 196.77895 606.41648 185.81236 598.21 176.59375 588.3125 C 158.37601 604.75102 134.23268 614.75 107.78125 614.75 C 53.762461 614.75 9.4397503 573.00472 5.34375 520.03125 z M 512 669.46875 C 459.008 669.46874 416 712.47675 416 765.46875 C 416 818.46074 459.008 861.46875 512 861.46875 C 564.992 861.46874 608 818.46075 608 765.46875 C 608 712.47674 564.992 669.46875 512 669.46875 z M 509.9375 685.46875 C 510.62333 685.45136 511.31 685.46875 512 685.46875 C 556.16001 685.46874 592.00001 721.30874 592 765.46875 C 592 809.62875 556.16 845.46875 512 845.46875 C 467.83999 845.46874 432 809.62875 432 765.46875 C 432 721.99873 466.73003 686.56463 509.9375 685.46875 z M 512 733.46875 C 494.336 733.46874 480 747.80475 480 765.46875 C 480 783.13274 494.336 797.46875 512 797.46875 C 529.664 797.46874 544 783.13275 544 765.46875 C 544 747.80474 529.664 733.46875 512 733.46875 z M 411.53125 814.96875 C 395.05485 836.35963 385.25 863.15015 385.25 892.21875 C 385.25 960.13384 438.74629 1015.5868 505.875 1018.7812 C 452.00156 1015.6134 409.25 970.8829 409.25 916.21875 C 409.24999 889.76731 419.24899 865.62401 435.6875 847.40625 C 425.79 838.18763 417.58352 827.22105 411.53125 814.96875 z M 612.46875 814.96875 C 606.41648 827.22104 598.21 838.18764 588.3125 847.40625 C 604.75102 865.62399 614.75 889.76732 614.75 916.21875 C 614.75 970.23754 573.00472 1014.5602 520.03125 1018.6562 C 586.25802 1014.5075 638.75001 959.48553 638.75 892.21875 C 638.75 863.15014 628.94515 836.35965 612.46875 814.96875 z "
       id="path2204" />
  </g>
  <g
     inkscape:groupmode="layer"
     id="layer2"
     inkscape:label="test"
     style="display:none">
    <g
       id="g2868"
       style="stroke:url(#radialGradient2977);stroke-width:1.04694831"
       transform="matrix(0.955157,0,0,0.955157,22.95964,22.95964)">
      <path
         id="path1953"
         d="M 662.47303,719.10835 L 511.99999,256 L 361.52698,719.10835 L 755.47047,432.89164 L 268.52953,432.89166 L 662.47303,719.10835 z "
         style="fill:none;fill-opacity:0.75;fill-rule:evenodd;stroke:url(#radialGradient2979);stroke-width:31.40845108;stroke-linecap:butt;stroke-linejoin:miter;stroke-miterlimit:4;stroke-dasharray:none;stroke-opacity:1" />
      <path
         transform="matrix(-1,0,0,-1,1024,1024)"
         d="M 832 512 A 320 320 0 1 1  192,512 A 320 320 0 1 1  832 512 z"
         sodipodi:ry="320"
         sodipodi:rx="320"
         sodipodi:cy="512"
         sodipodi:cx="512"
         id="path2849"
         style="fill:none;fill-opacity:0.43315507;fill-rule:nonzero;stroke:url(#radialGradient2981);stroke-width:31.40845108;stroke-linecap:round;stroke-linejoin:round;stroke-miterlimit:4;stroke-dasharray:none;stroke-dashoffset:0;stroke-opacity:1"
         sodipodi:type="arc" />
    </g>
  </g>
</svg>
