<?xml version="1.0" encoding="UTF-8" standalone="no"?>
<!-- Created with Inkscape (http://www.inkscape.org/) -->
<svg
   xmlns:dc="http://purl.org/dc/elements/1.1/"
   xmlns:cc="http://web.resource.org/cc/"
   xmlns:rdf="http://www.w3.org/1999/02/22-rdf-syntax-ns#"
   xmlns:svg="http://www.w3.org/2000/svg"
   xmlns="http://www.w3.org/2000/svg"
   xmlns:xlink="http://www.w3.org/1999/xlink"
   xmlns:sodipodi="http://sodipodi.sourceforge.net/DTD/sodipodi-0.dtd"
   xmlns:inkscape="http://www.inkscape.org/namespaces/inkscape"
   width="1024"
   height="1024"
   id="svg2"
   sodipodi:version="0.32"
   inkscape:version="0.44"
   version="1.0"
   sodipodi:docbase="/Users/esposito/Pictures/svg/YClock"
   sodipodi:docname="onze.svg">
  <defs
     id="defs4">
    <linearGradient
       id="linearGradient2872">
      <stop
         style="stop-color:black;stop-opacity:1;"
         offset="0"
         id="stop2874" />
      <stop
         style="stop-color:#6600e2;stop-opacity:1;"
         offset="1"
         id="stop2876" />
    </linearGradient>
    <radialGradient
       inkscape:collect="always"
       xlink:href="#linearGradient2872"
       id="radialGradient2878"
       cx="512"
       cy="512"
       fx="512"
       fy="512"
       r="335"
       gradientUnits="userSpaceOnUse" />
    <radialGradient
       inkscape:collect="always"
       xlink:href="#linearGradient2872"
       id="radialGradient2977"
       gradientUnits="userSpaceOnUse"
       cx="512"
       cy="512"
       fx="512"
       fy="512"
       r="335" />
    <radialGradient
       inkscape:collect="always"
       xlink:href="#linearGradient2872"
       id="radialGradient2979"
       gradientUnits="userSpaceOnUse"
       cx="512"
       cy="512"
       fx="512"
       fy="512"
       r="335" />
    <radialGradient
       inkscape:collect="always"
       xlink:href="#linearGradient2872"
       id="radialGradient2981"
       gradientUnits="userSpaceOnUse"
       cx="512"
       cy="512"
       fx="512"
       fy="512"
       r="335" />
  </defs>
  <sodipodi:namedview
     id="base"
     pagecolor="#ffffff"
     bordercolor="#666666"
     borderopacity="1.0"
     gridtolerance="50"
     guidetolerance="10"
     objecttolerance="50"
     inkscape:pageopacity="0.0"
     inkscape:pageshadow="2"
     inkscape:zoom="0.43945312"
     inkscape:cx="511.99998"
     inkscape:cy="523.04678"
     inkscape:document-units="px"
     inkscape:current-layer="layer1"
     width="1024px"
     height="1024px"
     showgrid="true"
     gridspacingx="32px"
     gridspacingy="32px"
     gridempspacing="8"
     inkscape:grid-points="true"
     inkscape:grid-bbox="true"
     inkscape:object-points="false"
     inkscape:object-paths="true"
     inkscape:window-width="867"
     inkscape:window-height="649"
     inkscape:window-x="0"
     inkscape:window-y="22" />
  <metadata
     id="metadata7">
    <rdf:RDF>
      <cc:Work
         rdf:about="">
        <dc:format>image/svg+xml</dc:format>
        <dc:type
           rdf:resource="http://purl.org/dc/dcmitype/StillImage" />
      </cc:Work>
    </rdf:RDF>
  </metadata>
  <g
     inkscape:label="Layer 1"
     inkscape:groupmode="layer"
     id="layer1"
     style="display:inline">
    <path
       style="opacity:1;fill:black;fill-opacity:0.50267382;fill-rule:nonzero;stroke:none;stroke-width:10;stroke-linecap:round;stroke-linejoin:miter;stroke-miterlimit:1;stroke-dasharray:none;stroke-dashoffset:0;stroke-opacity:1"
       d="M 506.3125 96.125 C 453.40376 98.44238 408.79752 132.93361 391.59375 180.5 C 356.40061 172.01378 317.84233 178.41328 286.28125 201.34375 C 229.11934 242.87431 216.4382 322.9631 257.96875 380.125 C 264.86445 389.61612 272.82208 397.88054 281.5625 404.875 C 277.62319 411.22015 274.18193 417.97346 271.34375 425.125 C 274.2409 418.01456 277.80193 411.33493 281.9375 405.15625 C 313.08615 429.89576 354.05889 438.58503 392.21875 429.1875 C 401.11949 452.74317 416.77102 472.9827 436.8125 487.5625 C 412.02393 487.57747 387.45381 494.76093 366.40625 508.59375 C 341.06604 478.57762 302.84859 461.49611 263.125 463.1875 C 263.47027 454.17648 264.8915 445.08015 267.53125 436.0625 C 264.85093 445.08386 263.22055 454.18146 262.5625 463.21875 C 251.39505 463.7436 240.11059 465.7548 228.96875 469.375 C 161.77089 491.20891 124.94734 563.45841 146.78125 630.65625 C 168.61514 697.85408 240.89591 734.67765 308.09375 712.84375 C 319.25368 709.21767 329.55156 704.18433 338.90625 698.03125 C 343.66956 703.67472 348.96767 708.97938 354.8125 713.84375 C 349.02857 708.93678 343.88775 703.52428 339.34375 697.75 C 372.47381 675.7639 393.37107 639.49591 396.21875 600.3125 C 421.37792 599.12431 445.46564 590.50163 465.53125 575.9375 C 457.87878 599.52485 457.12394 625.10575 463.78125 649.40625 C 427.38345 664.23189 399.349 695.33185 388.6875 733.65625 C 381.68947 731.08371 374.85313 727.78182 368.3125 723.71875 C 374.8333 727.85288 381.621 731.29964 388.5625 734.125 C 385.604 744.91944 384 756.27097 384 768 C 384 838.656 441.344 896 512 896 C 582.656 896 640 838.656 640 768 C 640 756.27101 638.42735 744.91892 635.46875 734.125 C 643.15278 730.99456 650.62337 727.08039 657.78125 722.34375 C 650.60694 727.02376 643.06167 730.74255 635.3125 733.59375 C 624.63696 695.30498 596.59194 664.22209 560.21875 649.40625 C 566.87606 625.10575 566.12122 599.52485 558.46875 575.9375 C 578.53435 590.50162 602.62208 599.12431 627.78125 600.3125 C 630.63221 639.49553 651.52419 675.76456 684.65625 697.75 C 679.54775 704.24415 673.67249 710.27561 667 715.65625 C 673.72083 710.31016 679.77007 704.40568 685.125 698.0625 C 694.47 704.20404 704.76164 709.22265 715.90625 712.84375 C 783.10413 734.67767 855.38485 697.8541 877.21875 630.65625 C 899.05267 563.45839 862.2291 491.2089 795.03125 469.375 C 783.86835 465.74796 772.56271 463.7387 761.375 463.21875 C 760.83854 455.85603 759.68169 448.46202 757.8125 441.09375 C 759.60511 448.45323 760.62288 455.85441 760.90625 463.1875 C 721.17432 461.48913 682.93713 478.5686 657.59375 508.59375 C 636.54619 494.76093 611.97606 487.57747 587.1875 487.5625 C 607.22898 472.9827 622.88051 452.74317 631.78125 429.1875 C 669.93909 438.58442 710.91281 429.92303 742.0625 405.1875 C 747.03777 412.62158 751.18969 420.764 754.34375 429.53125 C 751.21716 420.72823 747.21679 412.48816 742.46875 404.84375 C 751.19357 397.85566 759.14612 389.60157 766.03125 380.125 C 807.56179 322.96309 794.88066 242.8743 737.71875 201.34375 C 706.15768 178.41328 667.5994 172.01378 632.40625 180.5 C 615.27604 133.13374 570.9927 98.733761 518.375 96.15625 C 568.99148 99.013772 610.67439 135.55421 621.34375 183.6875 C 597.10549 191.88293 575.07914 207.39617 558.90625 229.65625 C 552.00975 239.14847 546.63881 249.27467 542.6875 259.75 C 535.66393 258.02008 528.42496 256.85999 521 256.34375 C 528.39451 256.9355 535.57797 258.25809 542.5 260.21875 C 535.58585 278.77276 533.20853 298.42995 535.125 317.59375 C 527.66131 319.16272 519.92802 320 512 320 C 504.07198 320 496.33869 319.16272 488.875 317.59375 C 490.79065 298.42497 488.41816 278.77672 481.5 260.21875 C 489.45062 257.9677 497.75174 256.55603 506.3125 256.125 C 497.72975 256.50092 489.37624 257.73162 481.3125 259.71875 C 477.36202 249.25596 471.98231 239.13754 465.09375 229.65625 C 448.92086 207.39617 426.89451 191.88293 402.65625 183.6875 C 413.37386 135.33654 455.38633 98.689132 506.3125 96.125 z M 369.6875 205.84375 C 374.86573 205.79173 380.03282 206.12363 385.15625 206.78125 C 384.39716 212.4167 384 218.15776 384 224 C 384 254.26844 394.53924 282.0793 412.125 304 C 402.56426 315.92115 395.07755 329.57961 390.25 344.4375 C 350.66359 344.44289 313.13468 362.97115 289 394.1875 C 285.93725 390.89432 283.02214 387.38576 280.3125 383.65625 C 243.97328 333.63959 255.07708 263.55799 305.09375 227.21875 C 324.63151 213.02373 347.23276 206.06935 369.6875 205.84375 z M 651.625 205.84375 C 674.96049 205.51922 698.58698 212.45593 718.90625 227.21875 C 768.92294 263.55799 780.02674 333.63958 743.6875 383.65625 C 740.98679 387.37346 738.08282 390.87248 735.03125 394.15625 C 710.88966 362.9479 673.32968 344.41107 633.75 344.40625 C 628.92035 329.56147 621.43164 315.90949 611.875 304 C 629.46076 282.0793 640 254.26844 640 224 C 640 218.1561 639.60329 212.41811 638.84375 206.78125 C 643.0785 206.2377 647.34815 205.90323 651.625 205.84375 z M 400.03125 209.6875 C 423.93017 216.10144 445.86469 230.43682 461.53125 252 C 464.2392 255.72717 466.69048 259.57207 468.875 263.5 C 454.89258 268.50863 442.03448 275.83732 430.78125 285.09375 C 412.067 265.38891 400.46592 238.88456 400.03125 209.6875 z M 623.96875 209.6875 C 623.53396 238.89218 611.91034 265.38732 593.1875 285.09375 C 581.93492 275.84901 569.10277 268.46996 555.125 263.46875 C 557.30617 259.54907 559.76624 255.71969 562.46875 252 C 578.13532 230.43682 600.06983 216.10144 623.96875 209.6875 z M 469.375 264.40625 C 478.23203 280.68441 482.6585 298.4618 482.90625 316.15625 C 464.0845 311.09943 447.21618 301.27236 433.6875 288.03125 C 443.89009 278.03476 455.96587 269.94056 469.375 264.40625 z M 554.625 264.40625 C 568.03294 269.94159 580.14138 278.00406 590.34375 288 C 576.80977 301.25666 559.9301 311.0955 541.09375 316.15625 C 541.3415 298.4618 545.76797 280.68441 554.625 264.40625 z M 416.625 309.34375 C 432.97654 327.60205 454.50198 341.13509 478.875 347.65625 C 476.58816 355.96241 473.33074 364.01727 469.15625 371.65625 C 457.67976 362.66721 444.47529 355.48298 429.8125 350.71875 C 420.70836 347.76063 411.52685 345.87552 402.375 345 C 405.0569 332.17109 409.95939 320.15465 416.625 309.34375 z M 607.375 309.34375 C 614.04473 320.15665 618.94239 332.1677 621.625 345 C 612.4734 345.87577 603.2911 347.76081 594.1875 350.71875 C 579.52472 355.48298 566.32024 362.66721 554.84375 371.65625 C 550.66926 364.01727 547.41184 355.96241 545.125 347.65625 C 569.49802 341.13509 591.02346 327.60205 607.375 309.34375 z M 542.125 348.40625 C 545.13778 356.76808 549.00142 364.85334 553.75 372.5 C 534.09824 388.2408 519.67281 409.37689 512 432.9375 C 504.32719 409.37689 489.90176 388.2408 470.25 372.5 C 474.99425 364.85953 478.86371 356.79217 481.875 348.4375 C 491.53562 350.77046 501.62609 352 512 352 C 522.37652 352 532.46217 350.74034 542.125 348.40625 z M 373.34375 355.5 C 377.8891 355.43001 382.47358 355.62684 387.0625 356.125 C 385.06817 365.0977 384 374.42978 384 384 C 384 399.4234 386.74208 414.2115 391.75 427.90625 C 355.10065 434.79766 316.30782 423.04085 289.6875 394.9375 C 310.48806 370.50954 341.07347 355.99688 373.34375 355.5 z M 646.40625 355.5 C 680.20947 354.73085 712.56976 369.45905 734.28125 394.9375 C 707.66137 423.02948 668.89251 434.79637 632.25 427.90625 C 637.25792 414.2115 640 399.4234 640 384 C 640 374.43097 638.96268 365.09633 636.96875 356.125 C 640.12214 355.78358 643.2701 355.57136 646.40625 355.5 z M 400.40625 358.40625 C 403.50041 359.12839 406.57943 359.96903 409.65625 360.96875 C 428.05487 366.94683 443.81596 377.27173 456.25 390.40625 C 451.20469 396.33402 445.47588 401.80596 439.0625 406.71875 C 439.17797 406.63092 439.32242 406.55691 439.4375 406.46875 C 445.71599 401.65929 451.39823 396.36252 456.53125 390.6875 C 478.03474 413.56439 489.41425 444.93362 486.65625 477.03125 C 493.66386 472.16076 502.20051 469.3125 511.375 469.3125 C 535.29624 469.3125 554.6875 488.70376 554.6875 512.625 C 554.68747 536.09357 536.01473 555.22187 512.71875 555.9375 C 533.35751 580.19337 542.35833 611.91762 538.4375 642.75 C 531.91606 641.37935 525.21952 640.49153 518.375 640.15625 C 525.22725 640.54309 531.93648 641.55897 538.40625 643.125 C 536.06411 661.06333 529.34084 678.69141 517.96875 694.34375 C 516.07016 696.95694 514.07523 699.44425 512 701.84375 C 509.92477 699.44425 507.92984 696.95694 506.03125 694.34375 C 494.66416 678.69829 487.93914 661.08684 485.59375 643.15625 C 492.2819 641.53688 499.21752 640.48223 506.3125 640.125 C 499.2385 640.43484 492.29372 641.3355 485.5625 642.75 C 481.64578 611.93415 490.63369 580.21783 511.25 555.96875 C 492.21726 555.91516 476.04423 543.57882 470.28125 526.46875 C 453.57797 553.47904 426.25941 571.77671 395.8125 577.5625 C 395.07913 570.71685 393.79818 563.86171 391.90625 557.03125 C 393.75844 563.8874 394.91065 570.76572 395.4375 577.625 C 377.66275 580.93992 358.83421 580.00871 340.4375 574.03125 C 337.37012 573.0346 334.38793 571.88624 331.46875 570.65625 C 333.10676 567.94672 334.8552 565.26422 336.75 562.65625 C 348.11529 547.01327 362.77431 535.17559 379.09375 527.40625 C 382.70514 533.2716 385.8403 539.54365 388.375 546.1875 C 385.89188 539.547 382.93011 533.2215 379.5 527.25 C 394.87165 520.00496 411.68677 516.33014 428.59375 516.5 C 442.50725 516.63979 456.48689 519.38342 469.75 524.8125 C 468.6216 520.95197 468.03125 516.84859 468.03125 512.625 C 468.03125 497.91906 475.35137 484.92943 486.5625 477.09375 C 455.17501 469.79488 428.85298 449.28227 413.75 421.75 C 420.03715 418.93476 426.14835 415.60111 432.0625 411.6875 C 426.11248 415.56887 419.92527 418.78513 413.5625 421.40625 C 404.92397 405.52736 400 387.33679 400 368 C 400 364.76711 400.13728 361.56996 400.40625 358.40625 z M 388.375 546.1875 C 388.71021 547.06615 389.02888 547.95225 389.34375 548.84375 C 389.29589 548.70681 389.26703 548.54294 389.21875 548.40625 C 388.95457 547.65827 388.65174 546.92758 388.375 546.1875 z M 623.59375 358.40625 C 623.86272 361.56996 624 364.76711 624 368 C 624 387.33609 619.07502 405.52627 610.4375 421.40625 C 604.07473 418.78513 597.88752 415.56887 591.9375 411.6875 C 597.83895 415.59155 603.94583 418.97091 610.21875 421.78125 C 595.09801 449.32701 568.7606 469.84873 537.34375 477.125 C 534.55537 444.99127 545.93736 413.58734 567.46875 390.6875 C 572.69542 396.46534 578.52383 401.83972 584.9375 406.71875 C 578.52412 401.80596 572.79531 396.33402 567.75 390.40625 C 580.18426 377.27541 595.9488 366.94563 614.34375 360.96875 C 617.42057 359.96903 620.49959 359.12839 623.59375 358.40625 z M 281.84375 474.15625 C 313.50253 473.61795 343.83654 486.65317 365.28125 509.375 C 353.1883 517.51034 342.27998 527.84078 333.21875 540.3125 C 327.59252 548.05633 322.97311 556.22359 319.3125 564.65625 C 286.8857 546.07857 266.20411 512.51538 263.375 476.03125 C 269.54234 474.88402 275.71976 474.26038 281.84375 474.15625 z M 739.4375 474.15625 C 746.44758 474.10446 753.54715 474.71465 760.625 476.03125 C 757.80195 512.51683 737.12037 546.07511 704.6875 564.65625 C 701.02744 556.22761 696.40481 548.05267 690.78125 540.3125 C 681.72001 527.84078 670.8117 517.51034 658.71875 509.375 C 679.55104 487.30206 708.7617 474.38287 739.4375 474.15625 z M 262.28125 476.21875 C 263.45824 515.66386 282.97445 552.72199 315 576 C 302.77241 613.65171 308.82218 655.08721 331.0625 687.6875 C 326.98288 689.58343 322.72941 691.26251 318.34375 692.6875 C 259.54564 711.79215 196.32342 679.57938 177.21875 620.78125 C 158.11407 561.98313 190.32688 498.76091 249.125 479.65625 C 253.49112 478.23761 257.88609 477.08144 262.28125 476.21875 z M 761.65625 476.21875 C 766.07152 477.08288 770.48895 478.23113 774.875 479.65625 C 833.67313 498.76092 865.88592 561.98313 846.78125 620.78125 C 827.67657 679.57936 764.45437 711.79217 705.65625 692.6875 C 701.27983 691.26551 697.04044 689.57849 692.96875 687.6875 C 715.19856 655.08724 721.23317 613.65221 709 576 C 741.01236 552.72515 760.48228 515.65633 761.65625 476.21875 z M 595.40625 516.5 C 612.32257 516.33005 629.15272 519.99698 644.53125 527.25 C 641.09694 533.22618 638.11085 539.54113 635.625 546.1875 C 638.1597 539.54365 641.29486 533.2716 644.90625 527.40625 C 661.22569 535.1756 675.88471 547.01327 687.25 562.65625 C 689.1448 565.26422 690.89324 567.94672 692.53125 570.65625 C 689.61207 571.88624 686.62988 573.0346 683.5625 574.03125 C 665.1669 580.00834 646.33792 580.93808 628.5625 577.625 C 629.14864 569.99388 630.51808 562.3354 632.75 554.71875 C 630.49415 562.31146 628.97239 569.94286 628.15625 577.5625 C 597.28161 571.69068 569.62816 552.95261 553 525.3125 C 566.63044 519.53912 581.05755 516.64416 595.40625 516.5 z M 325.15625 582.6875 C 333.07138 587.35494 341.61984 591.23109 350.71875 594.1875 C 365.37877 598.95084 380.28252 600.90504 394.84375 600.375 C 390.07344 637.3548 366.94536 670.61442 332 687.25 C 312.83618 656.08155 309.84621 616.78316 325.15625 582.6875 z M 698.84375 582.6875 C 714.14997 616.77463 711.15617 656.07997 692 687.25 C 657.05464 670.61441 633.92655 637.35479 629.15625 600.375 C 643.71748 600.90504 658.62123 598.95083 673.28125 594.1875 C 682.37619 591.23238 690.93187 587.35219 698.84375 582.6875 z M 464.125 650.71875 C 464.1336 650.71467 464.14765 650.72283 464.15625 650.71875 C 468.15742 664.73661 474.62454 678.30715 483.6875 690.78125 C 489.30988 698.51979 495.64797 705.44698 502.53125 711.53125 C 474.84312 736.63019 436.53954 745.95176 400.96875 737.375 C 405.98531 699.00295 430.43902 666.68981 464.125 650.71875 z M 559.84375 650.71875 C 593.53404 666.68129 618.00436 698.9754 623.03125 737.34375 C 587.46441 745.92949 549.15642 736.62978 521.46875 711.53125 C 528.35835 705.44324 534.68576 698.52579 540.3125 690.78125 C 549.37546 678.30714 555.84258 664.73661 559.84375 650.71875 z M 512 719.125 C 544.03521 742.38832 585.30838 749.48146 623.1875 738.40625 C 623.72797 742.86404 624 747.39725 624 752 C 624 813.824 573.824 864 512 864 C 450.176 864 400 813.824 400 752 C 400 747.39725 400.27203 742.86404 400.8125 738.40625 C 438.68998 749.46896 479.97198 742.38462 512 719.125 z "
       id="path2766" />
  </g>
  <g
     inkscape:groupmode="layer"
     id="layer3"
     inkscape:label="pourdix"
     style="display:inline" />
  <g
     inkscape:groupmode="layer"
     id="layer2"
     inkscape:label="test"
     style="display:none">
    <g
       id="g2868"
       style="stroke:url(#radialGradient2977);stroke-width:1.04694831"
       transform="matrix(0.955157,0,0,0.955157,22.95964,22.95964)">
      <path
         id="path1953"
         d="M 662.47303,719.10835 L 511.99999,256 L 361.52698,719.10835 L 755.47047,432.89164 L 268.52953,432.89166 L 662.47303,719.10835 z "
         style="fill:none;fill-opacity:0.75;fill-rule:evenodd;stroke:url(#radialGradient2979);stroke-width:31.40845108;stroke-linecap:butt;stroke-linejoin:miter;stroke-miterlimit:4;stroke-dasharray:none;stroke-opacity:1" />
      <path
         transform="matrix(-1,0,0,-1,1024,1024)"
         d="M 832 512 A 320 320 0 1 1  192,512 A 320 320 0 1 1  832 512 z"
         sodipodi:ry="320"
         sodipodi:rx="320"
         sodipodi:cy="512"
         sodipodi:cx="512"
         id="path2849"
         style="fill:none;fill-opacity:0.43315507;fill-rule:nonzero;stroke:url(#radialGradient2981);stroke-width:31.40845108;stroke-linecap:round;stroke-linejoin:round;stroke-miterlimit:4;stroke-dasharray:none;stroke-dashoffset:0;stroke-opacity:1"
         sodipodi:type="arc" />
    </g>
  </g>
</svg>
